<svg xmlns="http://www.w3.org/2000/svg" viewBox="0 0 1024 1024" width="1024" height="1024"><g stroke-width="2" fill="none" stroke-linecap="butt"><path d="M 607.62 351.21Q 607.02 350.5 605.77 349.76C 566.67 326.39 520.9 317.42 475.76 325.78Q 435.56 333.23 401.57 357.05" stroke="rgba(243,120,82,0.4)" vector-effect="non-scaling-stroke"/><path d="M 401.57 357.05Q 390.05 365.04 383.73 371.2Q 374.34 380.36 371.74 383.23Q 335.55 423.14 325.55 476.26Q 325.3 477.63 325.84 479.09" stroke="rgba(243,120,82,0.6)" vector-effect="non-scaling-stroke"/><path d="M 325.84 479.09Q 325 480.64 324.93 481.14C 322.02 501.82 322.08 521.62 326.01 542.12" stroke="rgba(243,120,82,0.4)" vector-effect="non-scaling-stroke"/><path d="M 326.01 542.12Q 331.19 571.22 345.14 597.04" stroke="rgba(243,120,82,0.6)" vector-effect="non-scaling-stroke"/><path d="M 345.14 597.04L 346.68 600.52" stroke="rgba(243,120,82,0.4)" vector-effect="non-scaling-stroke"/><path d="M 346.68 600.52L 346.96 601.9A 0.47 0.47 27.44 0 1 346.54 602.46Q 288.96 606.95 235.95 629.23Q 230.21 631.64 227.77 633.74C 221.21 639.36 221.18 647.68 223.35 656.19C 231.12 686.7 253.8 709.82 280.66 724.76Q 292.29 731.23 295.98 733.73C 319.81 749.86 335.73 774.53 342.26 802.54C 343.39 807.39 345.11 812.22 351.41 810.83A 3.86 3.8 20.53 0 0 352.8 810.21C 376.48 793.29 393.54 769.21 402.74 741.75Q 412.65 712.14 412.86 680.24Q 412.9 673.69 412.82 669.62A 0.33 0.33 -78.28 0 1 413.29 669.31L 414.99 670.07" stroke="rgba(243,120,82,0.6)" vector-effect="non-scaling-stroke"/><path d="M 414.99 670.07Q 428.66 677.43 439.96 682.05Q 457.99 689.42 479.38 693.04Q 485.05 694 490.91 694.45C 501.3 695.24 508.05 695.89 515.76 695.23C 524.17 694.52 530.38 694.32 537.9 693.12Q 576.17 687.01 609.13 666.23A 1.81 1.73 1.22 0 0 609.62 665.78L 610.32 664.85" stroke="rgba(243,120,82,0.4)" vector-effect="non-scaling-stroke"/><path d="M 610.32 664.85Q 610.97 665.31 611.49 664.96Q 674.94 621.75 691.63 546.57" stroke="rgba(243,120,82,0.6)" vector-effect="non-scaling-stroke"/><path d="M 691.63 546.57Q 692.86 539.24 693.84 532.33C 694.5 527.75 694.46 523.72 695.02 518.93Q 695.7 513.07 695.33 501.88Q 695.21 498.03 693.8 486.29Q 689.79 452.88 674.44 423.03" stroke="rgba(243,120,82,0.4)" vector-effect="non-scaling-stroke"/><path d="M 674.44 423.03L 674.31 422.09A 0.45 0.45 82.8 0 1 674.69 421.59Q 735.08 412.98 789.16 384.8C 796.36 381.05 801.09 377.36 801.81 369.55Q 802.27 364.47 801 360.22C 792.39 331.46 770.34 309.95 743.96 296.54C 735.59 292.28 724.99 288.15 716.99 283.19C 692.8 268.23 676.7 245.38 668.14 218.38Q 665.86 211.19 658.58 213.49A 2.26 2.25 -75.63 0 0 657.67 214.03Q 653.95 217.54 651.32 220.07C 620.81 249.36 607.93 291.31 608.47 333.5C 608.59 342.49 608.53 347.38 608.98 350.5A 0.64 0.63 77.46 0 1 608.55 351.19Q 608.06 351.34 607.62 351.21" stroke="rgba(243,120,82,0.6)" vector-effect="non-scaling-stroke"/><path d="M 674.44 423.03Q 673.41 424.17 672.36 423.41A 0.95 0.94 -80.1 0 1 672.01 422.91Q 670.93 419.4 668.98 417.86A 0.81 0.72 -86.58 0 1 668.76 417.58L 666.4 412.79A 1.21 1.05 -67.5 0 1 666.3 412.49Q 666.04 411.15 664.59 410.11A 1.3 1.29 14.35 0 1 664.06 409.22Q 663.87 407.74 662.14 406.44A 1.17 1.16 -72.21 0 1 661.68 405.53C 661.65 403.74 660.1 403.96 659.51 402.71Q 659.3 402.25 659.41 401.84A 0.52 0.51 -60 0 0 659.28 401.34L 655.8 397.86A 3.04 3.03 -77.5 0 1 655.09 396.74Q 654.4 394.79 652.12 393.19A 1.48 1.48 54.26 0 1 651.48 392.03Q 651.47 391.85 651.46 391.82A 2.18 2.14 17.92 0 0 650.88 390.71L 638.2 378.04A 1.28 1.27 -66.09 0 1 637.82 377.04Q 637.91 375.83 636.83 375.92A 1.38 1.37 -26.45 0 1 635.8 375.58Q 632.93 373.03 630.96 370.72Q 629.54 369.06 627.03 367.65Q 625.06 366.54 622.19 362.92A 1.39 1.34 72.63 0 0 621.24 362.4L 620.9 362.38A 1.6 1.59 -19.9 0 1 619.91 361.92C 618.82 360.83 617.47 359.14 616.02 358.8C 614.74 358.5 614.43 357.07 613.5 356.73Q 613.26 356.64 612.89 356.7A 0.86 0.86 72.3 0 1 612 356.24Q 611.54 355.37 608.52 354.03Q 606.41 353.09 607.62 351.21" stroke="rgba(243,120,82,0.8)" vector-effect="non-scaling-stroke"/><path d="M 691.63 546.57Q 687.14 544.05 683.77 541.91Q 668.58 532.22 663.08 528.41C 660.83 526.85 658.94 526.09 657.07 524.64C 653.92 522.19 650.1 519.77 647.88 518.42Q 639.77 513.51 631.42 507.9Q 624.84 503.48 615.11 497.14Q 599.29 486.83 598.65 486.4Q 596.84 485.21 595.13 484.06Q 592.27 482.15 589.31 480.4Q 585.34 478.05 583.54 476.69Q 579.57 473.68 574.96 470.94Q 572.32 469.36 566.26 465.33Q 548.6 453.57 522.86 437.13C 517.68 433.83 510.03 428.4 504.22 424.84C 495.28 419.37 486.16 412.87 477.55 407.47C 468.34 401.69 461.65 396.8 453.55 391.93Q 450.7 390.22 442.34 384.45Q 438.52 381.82 422.82 372.09C 421.87 371.49 421.08 370.71 420.35 369.94A 2.51 2.48 -9.47 0 0 419.5 369.34Q 416.19 367.89 415.5 367.29Q 413.61 365.64 412.86 365.51A 1.45 1.42 -15.05 0 1 412.03 365.04Q 410.8 363.6 408.92 362.81Q 403.89 360.7 401.57 357.05" stroke="rgba(243,120,82,0.8)" vector-effect="non-scaling-stroke"/><path d="M 610.32 664.85Q 610.43 664.06 609.29 663.46Q 607.46 662.49 605.63 661.05A 3.89 3.18 -5.77 0 0 605.04 660.66Q 600.51 658.26 596.84 655.35A 2.32 2.25 -18.1 0 0 595.96 654.92Q 595.22 654.73 593.67 653.07A 3.72 3.71 84.37 0 0 592.88 652.42Q 590.06 650.72 574.89 641.09Q 566.96 636.06 557.04 629.25Q 556.5 628.89 553.56 627.45A 4.04 3.98 -11.76 0 1 552.66 626.87Q 546.72 621.99 535.02 615Q 528.24 610.94 498.32 590.88C 493.54 587.68 489.01 585.34 484.2 581.84C 482.1 580.32 479.65 579.28 478.08 578.16Q 475.96 576.65 468.85 571.53C 467.61 570.64 465.43 569.94 464 568.87Q 459.17 565.28 441.73 554.23Q 436.84 551.12 400.76 527.47C 399.41 526.58 397.67 525.82 396.64 525.11Q 386.11 517.82 375.18 510.86Q 365.47 504.68 359.19 500.43C 352.05 495.6 341.49 489.3 332.94 483.32Q 329.47 480.9 325.84 479.09" stroke="rgba(243,120,82,0.8)" vector-effect="non-scaling-stroke"/><path d="M 414.99 670.07Q 415.33 670.07 415.46 669.84Q 415.79 669.25 415.35 668.73Q 412.53 665.39 409.28 664.14C 407.45 663.44 406.66 661.76 404.86 661.5A 1.36 1.33 -10.43 0 1 403.91 660.86Q 403.05 659.44 401.97 659.36A 1.78 1.78 -17.24 0 1 400.73 658.71Q 398.2 655.54 395.68 654.56A 2.34 2.33 -7.88 0 1 394.66 653.79Q 393.47 652.23 392.48 651.75Q 390.65 650.87 389.53 649.75Q 368.89 629.07 368.12 628.38A 3.81 3.62 -82.16 0 1 367.23 627.14Q 366.09 624.59 363.31 622.47A 1.83 1.82 14.28 0 1 362.6 621.28Q 362.46 620.28 360.4 618.39C 358.83 616.95 359.03 615.34 357.27 614.07A 1.24 1.22 17.98 0 1 356.75 613.07C 356.72 611.45 354.86 611.27 354.44 609.71C 354.01 608.08 352.67 607.74 352.18 606.39Q 351.23 603.77 350.23 602.31Q 348.63 599.99 346.68 600.52" stroke="rgba(243,120,82,0.8)" vector-effect="non-scaling-stroke"/><path d="M 345.14 597.04Q 344.63 594.07 342.69 591.49A 2.65 2.58 17.59 0 1 342.33 590.82Q 341.61 588.93 339.79 584.98Q 332.22 568.47 327.79 548.61Q 327.75 548.41 327.36 545.81Q 327.05 543.76 326.01 542.12" stroke="rgba(243,120,82,0.8)" vector-effect="non-scaling-stroke"/></g><path d="M 1024 0L 1024 1024L 0 1024L 0 0L 1024 0ZM 607.62 351.21Q 607.02 350.5 605.77 349.76C 566.67 326.39 520.9 317.42 475.76 325.78Q 435.56 333.23 401.57 357.05Q 390.05 365.04 383.73 371.2Q 374.34 380.36 371.74 383.23Q 335.55 423.14 325.55 476.26Q 325.3 477.63 325.84 479.09Q 325 480.64 324.93 481.14C 322.02 501.82 322.08 521.62 326.01 542.12Q 331.19 571.22 345.14 597.04L 346.68 600.52L 346.96 601.9A 0.47 0.47 27.44 0 1 346.54 602.46Q 288.96 606.95 235.95 629.23Q 230.21 631.64 227.77 633.74C 221.21 639.36 221.18 647.68 223.35 656.19C 231.12 686.7 253.8 709.82 280.66 724.76Q 292.29 731.23 295.98 733.73C 319.81 749.86 335.73 774.53 342.26 802.54C 343.39 807.39 345.11 812.22 351.41 810.83A 3.86 3.8 20.53 0 0 352.8 810.21C 376.48 793.29 393.54 769.21 402.74 741.75Q 412.65 712.14 412.86 680.24Q 412.9 673.69 412.82 669.62A 0.33 0.33 -78.28 0 1 413.29 669.31L 414.99 670.07Q 428.66 677.43 439.96 682.05Q 457.99 689.42 479.38 693.04Q 485.05 694 490.91 694.45C 501.3 695.24 508.05 695.89 515.76 695.23C 524.17 694.52 530.38 694.32 537.9 693.12Q 576.17 687.01 609.13 666.23A 1.81 1.73 1.22 0 0 609.62 665.78L 610.32 664.85Q 610.97 665.31 611.49 664.96Q 674.94 621.75 691.63 546.57Q 692.86 539.24 693.84 532.33C 694.5 527.75 694.46 523.72 695.02 518.93Q 695.7 513.07 695.33 501.88Q 695.21 498.03 693.8 486.29Q 689.79 452.88 674.44 423.03L 674.31 422.09A 0.45 0.45 82.8 0 1 674.69 421.59Q 735.08 412.98 789.16 384.8C 796.36 381.05 801.09 377.36 801.81 369.55Q 802.27 364.47 801 360.22C 792.39 331.46 770.34 309.95 743.96 296.54C 735.59 292.28 724.99 288.15 716.99 283.19C 692.8 268.23 676.7 245.38 668.14 218.38Q 665.86 211.19 658.58 213.49A 2.26 2.25 -75.63 0 0 657.67 214.03Q 653.95 217.54 651.32 220.07C 620.81 249.36 607.93 291.31 608.47 333.5C 608.59 342.49 608.53 347.38 608.98 350.5A 0.64 0.63 77.46 0 1 608.55 351.19Q 608.06 351.34 607.62 351.21Z" fill="rgba(244, 121, 82, 0.2)"/><path d="M 674.44 423.03Q 673.41 424.17 672.36 423.41A 0.95 0.94 -80.1 0 1 672.01 422.91Q 670.93 419.4 668.98 417.86A 0.81 0.72 -86.58 0 1 668.76 417.58L 666.4 412.79A 1.21 1.05 -67.5 0 1 666.3 412.49Q 666.04 411.15 664.59 410.11A 1.3 1.29 14.35 0 1 664.06 409.22Q 663.87 407.74 662.14 406.44A 1.17 1.16 -72.21 0 1 661.68 405.53C 661.65 403.74 660.1 403.96 659.51 402.71Q 659.3 402.25 659.41 401.84A 0.52 0.51 -60 0 0 659.28 401.34L 655.8 397.86A 3.04 3.03 -77.5 0 1 655.09 396.74Q 654.4 394.79 652.12 393.19A 1.48 1.48 54.26 0 1 651.48 392.03Q 651.47 391.85 651.46 391.82A 2.18 2.14 17.92 0 0 650.88 390.71L 638.2 378.04A 1.28 1.27 -66.09 0 1 637.82 377.04Q 637.91 375.83 636.83 375.92A 1.38 1.37 -26.45 0 1 635.8 375.58Q 632.93 373.03 630.96 370.72Q 629.54 369.06 627.03 367.65Q 625.06 366.54 622.19 362.92A 1.39 1.34 72.63 0 0 621.24 362.4L 620.9 362.38A 1.6 1.59 -19.9 0 1 619.91 361.92C 618.82 360.83 617.47 359.14 616.02 358.8C 614.74 358.5 614.43 357.07 613.5 356.73Q 613.26 356.64 612.89 356.7A 0.86 0.86 72.3 0 1 612 356.24Q 611.54 355.37 608.52 354.03Q 606.41 353.09 607.62 351.21Q 608.06 351.34 608.55 351.19A 0.64 0.63 77.46 0 0 608.98 350.5C 608.53 347.38 608.59 342.49 608.47 333.5C 607.93 291.31 620.81 249.36 651.32 220.07Q 653.95 217.54 657.67 214.03A 2.26 2.25 -75.63 0 1 658.58 213.49Q 665.86 211.19 668.14 218.38C 676.7 245.38 692.8 268.23 716.99 283.19C 724.99 288.15 735.59 292.28 743.96 296.54C 770.34 309.95 792.39 331.46 801 360.22Q 802.27 364.47 801.81 369.55C 801.09 377.36 796.36 381.05 789.16 384.8Q 735.08 412.98 674.69 421.59A 0.45 0.45 82.8 0 0 674.31 422.09L 674.44 423.03Z" fill="#f37852"/><path d="M 607.62 351.21Q 606.41 353.09 608.52 354.03Q 611.54 355.37 612 356.24A 0.86 0.86 72.3 0 0 612.89 356.7Q 613.26 356.64 613.5 356.73C 614.43 357.07 614.74 358.5 616.02 358.8C 617.47 359.14 618.82 360.83 619.91 361.92A 1.6 1.59 -19.9 0 0 620.9 362.38L 621.24 362.4A 1.39 1.34 72.63 0 1 622.19 362.92Q 625.06 366.54 627.03 367.65Q 629.54 369.06 630.96 370.72Q 632.93 373.03 635.8 375.58A 1.38 1.37 -26.45 0 0 636.83 375.92Q 637.91 375.83 637.82 377.04A 1.28 1.27 -66.09 0 0 638.2 378.04L 650.88 390.71A 2.18 2.14 17.92 0 1 651.46 391.82Q 651.47 391.85 651.48 392.03A 1.48 1.48 20.31 0 0 652.12 393.19Q 654.4 394.79 655.09 396.74A 3.04 3.03 -77.5 0 0 655.8 397.86L 659.28 401.34A 0.52 0.51 -60 0 1 659.41 401.84Q 659.3 402.25 659.51 402.71C 660.1 403.96 661.65 403.74 661.68 405.53A 1.17 1.16 -72.21 0 0 662.14 406.44Q 663.87 407.74 664.06 409.22A 1.3 1.29 14.35 0 0 664.59 410.11Q 666.04 411.15 666.3 412.49A 1.21 1.05 -67.5 0 0 666.4 412.79L 668.76 417.58A 0.81 0.72 -86.58 0 0 668.98 417.86Q 670.93 419.4 672.01 422.91A 0.95 0.94 -80.1 0 0 672.36 423.41Q 673.41 424.17 674.44 423.03Q 689.79 452.88 693.8 486.29Q 695.21 498.03 695.33 501.88Q 695.7 513.07 695.02 518.93C 694.46 523.72 694.5 527.75 693.84 532.33Q 692.86 539.24 691.63 546.57Q 687.14 544.05 683.77 541.91Q 668.58 532.22 663.08 528.41C 660.83 526.85 658.94 526.09 657.07 524.64C 653.92 522.19 650.1 519.77 647.88 518.42Q 639.77 513.51 631.42 507.9Q 624.84 503.48 615.11 497.14Q 599.29 486.83 598.65 486.4Q 596.84 485.21 595.13 484.06Q 592.27 482.15 589.31 480.4Q 585.34 478.05 583.54 476.69Q 579.57 473.68 574.96 470.94Q 572.32 469.36 566.26 465.33Q 548.6 453.57 522.86 437.13C 517.68 433.83 510.03 428.4 504.22 424.84C 495.28 419.37 486.16 412.87 477.55 407.47C 468.34 401.69 461.65 396.8 453.55 391.93Q 450.7 390.22 442.34 384.45Q 438.52 381.82 422.82 372.09C 421.87 371.49 421.08 370.71 420.35 369.94A 2.51 2.48 -9.47 0 0 419.5 369.34Q 416.19 367.89 415.5 367.29Q 413.61 365.64 412.86 365.51A 1.45 1.42 -15.05 0 1 412.03 365.04Q 410.8 363.6 408.92 362.81Q 403.89 360.7 401.57 357.05Q 435.56 333.23 475.76 325.78C 520.9 317.42 566.67 326.39 605.77 349.76Q 607.02 350.5 607.62 351.21Z" fill="rgba(243, 120, 82, 0.6)"/><path d="M 691.63 546.57Q 674.94 621.75 611.49 664.96Q 610.97 665.31 610.32 664.85Q 610.43 664.06 609.29 663.46Q 607.46 662.49 605.63 661.05A 3.89 3.18 -5.77 0 0 605.04 660.66Q 600.51 658.26 596.84 655.35A 2.32 2.25 -18.1 0 0 595.96 654.92Q 595.22 654.73 593.67 653.07A 3.72 3.71 84.37 0 0 592.88 652.42Q 590.06 650.72 574.89 641.09Q 566.96 636.06 557.04 629.25Q 556.5 628.89 553.56 627.45A 4.04 3.98 -11.76 0 1 552.66 626.87Q 546.72 621.99 535.02 615Q 528.24 610.94 498.32 590.88C 493.54 587.68 489.01 585.34 484.2 581.84C 482.1 580.32 479.65 579.28 478.08 578.16Q 475.96 576.65 468.85 571.53C 467.61 570.64 465.43 569.94 464 568.87Q 459.17 565.28 441.73 554.23Q 436.84 551.12 400.76 527.47C 399.41 526.58 397.67 525.82 396.64 525.11Q 386.11 517.82 375.18 510.86Q 365.47 504.68 359.19 500.43C 352.05 495.6 341.49 489.3 332.94 483.32Q 329.47 480.9 325.84 479.09Q 325.3 477.63 325.55 476.26Q 335.55 423.14 371.74 383.23Q 374.34 380.36 383.73 371.2Q 390.05 365.04 401.57 357.05Q 403.89 360.7 408.92 362.81Q 410.8 363.6 412.03 365.04A 1.45 1.42 -15.05 0 0 412.86 365.51Q 413.61 365.64 415.5 367.29Q 416.19 367.89 419.5 369.34A 2.51 2.48 -9.47 0 1 420.35 369.94C 421.08 370.71 421.87 371.49 422.82 372.09Q 438.52 381.82 442.34 384.45Q 450.7 390.22 453.55 391.93C 461.65 396.8 468.34 401.69 477.55 407.47C 486.16 412.87 495.28 419.37 504.22 424.84C 510.03 428.4 517.68 433.83 522.86 437.13Q 548.6 453.57 566.26 465.33Q 572.32 469.36 574.96 470.94Q 579.57 473.68 583.54 476.69Q 585.34 478.05 589.31 480.4Q 592.27 482.15 595.13 484.06Q 596.84 485.21 598.65 486.4Q 599.29 486.83 615.11 497.14Q 624.84 503.48 631.42 507.9Q 639.77 513.51 647.88 518.42C 650.1 519.77 653.92 522.19 657.07 524.64C 658.94 526.09 660.83 526.85 663.08 528.41Q 668.58 532.22 683.77 541.91Q 687.14 544.05 691.63 546.57Z" fill="#f37852"/><path d="M 610.32 664.85L 609.62 665.78A 1.81 1.73 1.22 0 1 609.13 666.23Q 576.17 687.01 537.9 693.12C 530.38 694.32 524.17 694.52 515.76 695.23C 508.05 695.89 501.3 695.24 490.91 694.45Q 485.05 694 479.38 693.04Q 457.99 689.42 439.96 682.05Q 428.66 677.43 414.99 670.07Q 415.33 670.07 415.46 669.84Q 415.79 669.25 415.35 668.73Q 412.53 665.39 409.28 664.14C 407.45 663.44 406.66 661.76 404.86 661.5A 1.36 1.33 -10.43 0 1 403.91 660.86Q 403.05 659.44 401.97 659.36A 1.78 1.78 -17.24 0 1 400.73 658.71Q 398.2 655.54 395.68 654.56A 2.34 2.33 -7.88 0 1 394.66 653.79Q 393.47 652.23 392.48 651.75Q 390.65 650.87 389.53 649.75Q 368.89 629.07 368.12 628.38A 3.81 3.62 -82.16 0 1 367.23 627.14Q 366.09 624.59 363.31 622.47A 1.83 1.82 14.28 0 1 362.6 621.28Q 362.46 620.28 360.4 618.39C 358.83 616.95 359.03 615.34 357.27 614.07A 1.24 1.22 17.98 0 1 356.75 613.07C 356.72 611.45 354.86 611.27 354.44 609.71C 354.01 608.08 352.67 607.74 352.18 606.39Q 351.23 603.77 350.23 602.31Q 348.63 599.99 346.68 600.52L 345.14 597.04Q 344.63 594.07 342.69 591.49A 2.65 2.58 17.59 0 1 342.33 590.82Q 341.61 588.93 339.79 584.98Q 332.22 568.47 327.79 548.61Q 327.75 548.41 327.36 545.81Q 327.05 543.76 326.01 542.12C 322.08 521.62 322.02 501.82 324.93 481.14Q 325 480.64 325.84 479.09Q 329.47 480.9 332.94 483.32C 341.49 489.3 352.05 495.6 359.19 500.43Q 365.47 504.68 375.18 510.86Q 386.11 517.82 396.64 525.11C 397.67 525.82 399.41 526.58 400.76 527.47Q 436.84 551.12 441.73 554.23Q 459.17 565.28 464 568.87C 465.43 569.94 467.61 570.64 468.85 571.53Q 475.96 576.65 478.08 578.16C 479.65 579.28 482.1 580.32 484.2 581.84C 489.01 585.34 493.54 587.68 498.32 590.88Q 528.24 610.94 535.02 615Q 546.72 621.99 552.66 626.87A 4.04 3.98 -11.76 0 0 553.56 627.45Q 556.5 628.89 557.04 629.25Q 566.96 636.06 574.89 641.09Q 590.06 650.72 592.88 652.42A 3.72 3.71 84.37 0 1 593.67 653.07Q 595.22 654.73 595.96 654.92A 2.32 2.25 -18.1 0 1 596.84 655.35Q 600.51 658.26 605.04 660.66A 3.89 3.18 -5.77 0 1 605.63 661.05Q 607.46 662.49 609.29 663.46Q 610.43 664.06 610.32 664.85Z" fill="rgba(243, 120, 82, 0.6)"/><path d="M 345.14 597.04Q 331.19 571.22 326.01 542.12Q 327.05 543.76 327.36 545.81Q 327.75 548.41 327.79 548.61Q 332.22 568.47 339.79 584.98Q 341.61 588.93 342.33 590.82A 2.65 2.58 17.59 0 0 342.69 591.49Q 344.63 594.07 345.14 597.04Z" fill="#f37852"/><path d="M 414.99 670.07L 413.29 669.31A 0.33 0.33 -78.28 0 0 412.82 669.62Q 412.9 673.69 412.86 680.24Q 412.65 712.14 402.74 741.75C 393.54 769.21 376.48 793.29 352.8 810.21A 3.86 3.8 20.53 0 1 351.41 810.83C 345.11 812.22 343.39 807.39 342.26 802.54C 335.73 774.53 319.81 749.86 295.98 733.73Q 292.29 731.23 280.66 724.76C 253.8 709.82 231.12 686.7 223.35 656.19C 221.18 647.68 221.21 639.36 227.77 633.74Q 230.21 631.64 235.95 629.23Q 288.96 606.95 346.54 602.46A 0.47 0.47 -17.84 0 0 346.96 601.9L 346.68 600.52Q 348.63 599.99 350.23 602.31Q 351.23 603.77 352.18 606.39C 352.67 607.74 354.01 608.08 354.44 609.71C 354.86 611.27 356.72 611.45 356.75 613.07A 1.24 1.22 17.98 0 0 357.27 614.07C 359.03 615.34 358.83 616.95 360.4 618.39Q 362.46 620.28 362.6 621.28A 1.83 1.82 14.28 0 0 363.31 622.47Q 366.09 624.59 367.23 627.14A 3.81 3.62 -82.16 0 0 368.12 628.38Q 368.89 629.07 389.53 649.75Q 390.65 650.87 392.48 651.75Q 393.47 652.23 394.66 653.79A 2.34 2.33 -7.88 0 0 395.68 654.56Q 398.2 655.54 400.73 658.71A 1.78 1.78 -17.24 0 0 401.97 659.36Q 403.05 659.44 403.91 660.86A 1.36 1.33 -10.43 0 0 404.86 661.5C 406.66 661.76 407.45 663.44 409.28 664.14Q 412.53 665.39 415.35 668.73Q 415.79 669.25 415.46 669.84Q 415.33 670.07 414.99 670.07Z" fill="#f37852"/></svg>