<svg xmlns="http://www.w3.org/2000/svg" viewBox="0 0 1024 1024" width="1024" height="1024"><g stroke-width="2" fill="none" stroke-linecap="butt"><path d="M 413.51 404.12Q 414.43 407.57 413.15 412.46A 5.22 5.1 -41.08 0 0 413 414.34L 414.15 425.53" stroke="rgba(65,63,57,1)" vector-effect="non-scaling-stroke"/><path d="M 414.15 425.53Q 386.09 425.41 357.75 425.63Q 355.98 425.65 354.42 424.09Q 329.15 398.86 327.71 397.35Q 322.04 391.42 319.01 390.32C 313.68 388.38 307.54 389.28 303.31 393.42Q 300.02 396.63 299.69 397.45Q 295.18 408.8 303.23 416.31Q 327.85 439.27 338.1 449.15Q 341.18 452.12 345.02 452.29Q 347.7 452.41 377.97 452.32A 0.91 0.91 -71.18 0 1 378.69 453.79Q 348.1 493.4 339.59 542.54A 0.71 0.7 -85.12 0 1 338.9 543.13Q 322.49 543.22 292.51 543.15Q 286.82 543.14 286 543.23Q 282.77 543.61 279.94 545.38C 273.86 549.19 270.72 556.45 272.81 563.4Q 274.57 569.25 280.18 572.85Q 283.42 574.93 286.53 574.96Q 298.92 575.09 336.18 575.02A 0.96 0.96 88.75 0 1 337.14 575.94C 337.9 594.17 340.61 611.4 346.81 628.98Q 349.55 636.75 351.21 639.42A 1.14 1.12 29.02 0 1 351.39 640.03Q 351.4 640.62 351.74 641.28Q 354.05 645.82 355.36 649.22A 0.5 0.5 -10.98 0 1 354.9 649.9C 347.52 649.99 341.1 648.79 335.7 653.69Q 330.3 658.6 316.14 673.39Q 308.49 681.38 299.28 690.42Q 295.3 694.33 294.22 696.9C 288.96 709.5 300.96 722.38 313.75 717.54Q 317.05 716.29 321.85 711.28Q 324.02 709.02 350.27 682.82A 3.41 3.38 22.5 0 1 352.66 681.84L 375.25 681.84A 1.37 1.37 69.7 0 1 376.29 682.32Q 411.5 724.34 464.68 739.87Q 479.78 744.28 499.75 746.1Q 501.48 746.26 501.65 744.65" stroke="rgba(135,134,130,1)" vector-effect="non-scaling-stroke"/><path d="M 501.65 744.65Q 504.15 742.25 510.01 741.8Q 511.46 741.69 512.59 741.68A 7.24 7.08 50.84 0 1 514.35 741.88Q 517.86 742.74 519.95 743C 521.19 743.14 521.64 743.78 522.02 744.8A 1.23 1.16 -87.2 0 0 522.57 745.44L 523.21 745.78" stroke="rgba(65,63,57,1)" vector-effect="non-scaling-stroke"/><path d="M 523.21 745.78Q 524.26 746.16 526 745.98Q 552.29 743.17 574.33 733.26Q 587.08 727.52 587.29 727.39A 0.07 0.07 -47.6 0 0 587.29 727.27Q 587.23 727.23 587.18 727.2A 0.32 0.03 -26.81 0 1 587.47 727.02Q 620.72 709.96 646.71 682.69A 2.24 2.22 -68 0 1 648.32 682L 672.44 682A 2.41 2.36 -23.16 0 1 674.06 682.63C 679.12 687.28 684.23 693.28 688.52 697.52Q 696.73 705.62 701.07 710.1Q 707.37 716.59 710.75 717.74Q 719.12 720.59 726.72 714.69A 4.03 3.97 0.43 0 0 727.4 714.03Q 735.09 704.48 728.55 694.15A 2.53 2.45 -89.15 0 0 727.9 693.46Q 727.74 693.34 712.17 677.33Q 706.82 671.83 689.41 654.09C 683.99 648.57 675.83 650.07 668.71 649.86A 0.35 0.35 13.67 0 1 668.4 649.36Q 668.81 648.5 669.23 647.65Q 685.72 613.98 686.71 578.48Q 686.75 576.95 687.36 575.54A 0.84 0.84 -78.21 0 1 688.13 575.03Q 704.42 575.11 737.01 575.03C 750.42 575 756.78 558.65 748.29 548.73Q 744.36 544.15 739.15 543.14A 6.7 6.49 50 0 0 737.8 543L 684.82 543A 1.06 1.05 82.94 0 1 683.8 542.2Q 674.85 504.87 653.67 471.89Q 647.32 462 641.7 454.14A 1.16 1.16 52.61 0 1 641.91 452.56Q 642.04 452.46 642.5 452.45Q 648.59 452.36 677.76 452.42Q 681.59 452.43 684.07 451.1A 2.42 2.36 8.8 0 0 684.63 450.7Q 708.73 427.29 720.65 415.88Q 725.77 410.98 726.27 405.35C 727.2 394.81 717.27 386.57 706.89 389.55Q 702.8 390.73 701.26 392.28Q 683.28 410.31 668.7 424.85A 2.57 2.57 22.9 0 1 666.87 425.59L 615.53 425.27" stroke="rgba(135,134,130,1)" vector-effect="non-scaling-stroke"/><path d="M 615.53 425.27L 614.03 416.96A 1.35 0.8 -75.69 0 0 613.98 416.79Q 611.78 410.03 611.58 404.1" stroke="rgba(65,63,57,1)" vector-effect="non-scaling-stroke"/><path d="M 611.58 404.1Q 610.42 355.69 573.21 327.05Q 569.25 324 566.59 322.12A 1.55 1.54 40.98 0 1 566.42 319.74Q 571.21 315.13 581.94 304.63Q 587.74 298.96 588.68 295.86Q 590.38 290.25 587.91 284.4Q 587.38 283.15 582.69 278.35A 0.06 0.03 55.74 0 1 582.68 278.27Q 582.74 278.25 582.8 278.27A 0.11 0.07 67.85 0 0 582.83 278.1Q 582.31 277.58 581.63 277.3Q 581.24 277.14 580.8 276.97Q 574.75 274.59 568.32 276.96Q 564.96 278.2 558.97 284.52Q 553.39 290.41 535.13 308.33A 2.41 2.41 28.79 0 1 532.92 308.97Q 512.28 304.41 491.59 308.97A 3.25 3.22 61.16 0 1 488.63 308.1L 458.74 278.21A 0.33 0.31 80.28 0 0 458.62 278.12Q 451.7 274.81 446.39 276.4Q 440.2 278.25 437.72 282.25Q 433.16 289.57 435.92 296.81Q 437.19 300.12 442.88 305.47Q 452.57 314.57 457.99 319.96A 1.47 1.47 -40.22 0 1 457.8 322.2Q 453.7 325.11 449.99 327.96Q 424.41 347.61 416.04 379.27Q 415.12 382.76 413.53 391.52Q 412.35 398.08 413.51 404.12" stroke="rgba(135,134,130,1)" vector-effect="non-scaling-stroke"/><path d="M 611.58 404.1L 413.51 404.12" stroke="rgba(185,185,182,1)" vector-effect="non-scaling-stroke"/><path d="M 523.21 745.78L 522.88 426.04A 0.4 0.4 -56.7 0 1 523.28 425.64L 615.53 425.27" stroke="rgba(185,185,182,1)" vector-effect="non-scaling-stroke"/><path d="M 414.15 425.53L 501.11 425.67A 0.54 0.54 45 0 1 501.65 426.21L 501.65 744.65" stroke="rgba(185,185,182,1)" vector-effect="non-scaling-stroke"/></g><path d="M 827.74 0Q 848.67 0.22 868.87 5.7C 872.87 6.79 876.12 6.82 879.88 8.16Q 886.76 10.61 893.15 12.53A 25.8 25.53 68.29 0 1 898.69 14.95Q 901.89 16.82 909.51 20.08C 915.75 22.75 921.48 26.55 927.81 29.54Q 931.83 31.45 934.09 33.16Q 940.01 37.67 941.29 38.26A 3.63 3.6 81.4 0 1 942.5 39.16Q 944.46 41.32 948.92 44.39Q 950.99 45.81 955.03 49.62Q 966.87 60.77 977.62 72.38Q 981.06 76.11 985.18 83.07Q 985.67 83.89 989.81 88.85A 8.35 7.95 -81.17 0 1 990.74 90.19Q 994.97 97.79 997.16 100.96C 1000.36 105.62 1002.29 111.7 1004.68 115.7Q 1005.89 117.7 1007.45 122.39Q 1008.38 125.17 1010.48 128.78C 1012.34 131.96 1013.28 137.39 1015.05 141.97Q 1016.61 145.99 1016.69 150.5C 1016.72 151.96 1018.25 154.74 1018.72 156.79C 1020.8 165.92 1023.04 174.63 1023.53 184.36Q 1023.83 190.18 1024 195.99L 1024 832.19C 1023.68 842.87 1022.46 849.88 1020.78 859.43Q 1019.73 865.45 1017.93 871.33Q 1012.64 888.63 1007.19 903.09Q 1006.09 906.02 1004.63 908.89C 1001.93 914.21 1000.34 917.48 996.98 922.78Q 992.7 929.52 989.99 934.97A 7.66 7.33 -13.47 0 1 989.21 936.18Q 984.24 942.39 977.18 951.43C 966.78 964.75 955.31 974.66 939.82 985.98C 934.7 989.72 930.66 993.73 925.12 995.71A 6.63 6.52 17.82 0 0 923.55 996.5Q 919.82 999.04 917.55 1000.06Q 905.03 1005.72 895.86 1010.48A 1.93 1.31 10.9 0 1 895.58 1010.6L 874.12 1017.26A 7.4 6.53 30.13 0 1 872.82 1017.52Q 872.41 1017.53 870.56 1017.97Q 862.22 1019.98 854.25 1021.74Q 846.64 1023.43 827.87 1024L 192.51 1024C 186.24 1023.76 179.82 1023.63 173.67 1022.41Q 166.56 1021 166.11 1020.94C 162.14 1020.34 159.05 1019.02 155.05 1018.26C 146.58 1016.65 140.61 1014.26 129.08 1010.54Q 123.88 1008.86 116.8 1005.22C 107.53 1000.44 97.79 995.92 89.67 989.89C 82.22 984.36 75.74 980.66 69.39 974.68Q 57.33 963.34 47.27 952.35C 43.35 948.06 40.63 943.16 36.35 937.69Q 32.7 933.02 29.14 926.86Q 19.83 910.76 15.78 900.54C 12.79 892.97 9.25 883.41 7.36 874.06Q 6.3 868.81 4.13 862.78A 5.21 4.85 31.65 0 1 3.94 862.09L 0.47 843.47A 5.98 5.85 -51.51 0 1 0.37 842.5L 0 827.87L 0 196.5Q 0.03 182.67 1.03 177.54Q 4.28 160.89 4.35 160.48C 5.35 154.16 7.94 148.08 9.12 142.04A 6.7 6.62 65.79 0 1 9.85 140.08Q 11.9 136.48 12.6 132.27C 13.26 128.28 15.46 125.08 16.74 121.04A 12.04 12.03 69.27 0 1 17.91 118.44C 20.21 114.68 21.99 109.58 24.38 105.52C 29.25 97.26 32.63 90.2 38.22 83.57C 41.4 79.79 44.18 75.48 48.12 70.98Q 55.93 62.03 59.07 58.82Q 60.1 57.76 69.3 49.53Q 74.64 44.75 78.92 41.76C 82.9 38.97 87.22 35.15 92.24 32.01C 102.03 25.85 113.08 20.68 123.64 15.4Q 126.31 14.06 130.93 12.7Q 135.11 11.47 138.33 10.33Q 147.03 7.25 149.76 6.77Q 154.75 5.88 156.65 5.28C 164.21 2.89 173.02 1.8 179.74 0.71C 183.5 0.1 188 0.2 192.14 0L 827.74 0Z" fill="#0e0c04"/><path d="M 611.58 404.1L 413.51 404.12Q 412.35 398.08 413.53 391.52Q 415.12 382.76 416.04 379.27Q 424.41 347.61 449.99 327.96Q 453.7 325.11 457.8 322.2A 1.47 1.47 -40.22 0 0 457.99 319.96Q 452.57 314.57 442.88 305.47Q 437.19 300.12 435.92 296.81Q 433.16 289.57 437.72 282.25Q 440.2 278.25 446.39 276.4Q 451.7 274.81 458.62 278.12A 0.33 0.31 80.28 0 1 458.74 278.21L 488.63 308.1A 3.25 3.22 61.16 0 0 491.59 308.97Q 512.28 304.41 532.92 308.97A 2.41 2.41 28.79 0 0 535.13 308.33Q 553.39 290.41 558.97 284.52Q 564.96 278.2 568.32 276.96Q 574.75 274.59 580.8 276.97Q 581.24 277.14 581.63 277.3Q 582.31 277.58 582.83 278.1A 0.11 0.07 67.85 0 1 582.8 278.27Q 582.74 278.25 582.68 278.27A 0.06 0.03 55.74 0 0 582.69 278.35Q 587.38 283.15 587.91 284.4Q 590.38 290.25 588.68 295.86Q 587.74 298.96 581.94 304.63Q 571.21 315.13 566.42 319.74A 1.55 1.54 40.98 0 0 566.59 322.12Q 569.25 324 573.21 327.05Q 610.42 355.69 611.58 404.1Z" fill="#ffffff"/><path d="M 523.21 745.78L 522.88 426.04A 0.4 0.4 -56.7 0 1 523.28 425.64L 615.53 425.27L 666.87 425.59A 2.57 2.57 22.9 0 0 668.7 424.85Q 683.28 410.31 701.26 392.28Q 702.8 390.73 706.89 389.55C 717.27 386.57 727.2 394.81 726.27 405.35Q 725.77 410.98 720.65 415.88Q 708.73 427.29 684.63 450.7A 2.42 2.36 8.8 0 1 684.07 451.1Q 681.59 452.43 677.76 452.42Q 648.59 452.36 642.5 452.45Q 642.04 452.46 641.91 452.56A 1.16 1.16 52.61 0 0 641.7 454.14Q 647.32 462 653.67 471.89Q 674.85 504.87 683.8 542.2A 1.06 1.05 82.94 0 0 684.82 543L 737.8 543A 6.7 6.49 50 0 1 739.15 543.14Q 744.36 544.15 748.29 548.73C 756.78 558.65 750.42 575 737.01 575.03Q 704.42 575.11 688.13 575.03A 0.84 0.84 -78.21 0 0 687.36 575.54Q 686.75 576.95 686.71 578.48Q 685.72 613.98 669.23 647.65Q 668.81 648.5 668.4 649.36A 0.35 0.35 13.67 0 0 668.71 649.86C 675.83 650.07 683.99 648.57 689.41 654.09Q 706.82 671.83 712.17 677.33Q 727.74 693.34 727.9 693.46A 2.53 2.45 -89.15 0 1 728.55 694.15Q 735.09 704.48 727.4 714.03A 4.03 3.97 0.43 0 1 726.72 714.69Q 719.12 720.59 710.75 717.74Q 707.37 716.59 701.07 710.1Q 696.73 705.62 688.52 697.52C 684.23 693.28 679.12 687.28 674.06 682.63A 2.41 2.36 -23.16 0 0 672.44 682L 648.32 682A 2.24 2.22 -68 0 0 646.71 682.69Q 620.72 709.96 587.47 727.02A 0.32 0.03 -26.81 0 0 587.18 727.2Q 587.23 727.23 587.29 727.27A 0.07 0.07 -47.6 0 1 587.29 727.39Q 587.08 727.52 574.33 733.26Q 552.29 743.17 526 745.98Q 524.26 746.16 523.21 745.78Z" fill="#ffffff"/><path d="M 414.15 425.53L 501.11 425.67A 0.54 0.54 45 0 1 501.65 426.21L 501.65 744.65Q 501.48 746.26 499.75 746.1Q 479.78 744.28 464.68 739.87Q 411.5 724.34 376.29 682.32A 1.37 1.37 69.7 0 0 375.25 681.84L 352.66 681.84A 3.41 3.38 22.5 0 0 350.27 682.82Q 324.02 709.02 321.85 711.28Q 317.05 716.29 313.75 717.54C 300.96 722.38 288.96 709.5 294.22 696.9Q 295.3 694.33 299.28 690.42Q 308.49 681.38 316.14 673.39Q 330.3 658.6 335.7 653.69C 341.1 648.79 347.52 649.99 354.9 649.9A 0.5 0.5 -10.98 0 0 355.36 649.22Q 354.05 645.82 351.74 641.28Q 351.4 640.62 351.39 640.03A 1.14 1.12 29.02 0 0 351.21 639.42Q 349.55 636.75 346.81 628.98C 340.61 611.4 337.9 594.17 337.14 575.94A 0.96 0.96 88.75 0 0 336.18 575.02Q 298.92 575.09 286.53 574.96Q 283.42 574.93 280.18 572.85Q 274.57 569.25 272.81 563.4C 270.72 556.45 273.86 549.19 279.94 545.38Q 282.77 543.61 286 543.23Q 286.82 543.14 292.51 543.15Q 322.49 543.22 338.9 543.13A 0.71 0.7 -85.12 0 0 339.59 542.54Q 348.1 493.4 378.69 453.79A 0.91 0.91 -71.18 0 0 377.97 452.32Q 347.7 452.41 345.02 452.29Q 341.18 452.12 338.1 449.15Q 327.85 439.27 303.23 416.31Q 295.18 408.8 299.69 397.45Q 300.02 396.63 303.31 393.42C 307.54 389.28 313.68 388.38 319.01 390.32Q 322.04 391.42 327.71 397.35Q 329.15 398.86 354.42 424.09Q 355.98 425.65 357.75 425.63Q 386.09 425.41 414.15 425.53Z" fill="#ffffff"/><path d="M 611.58 404.1Q 611.78 410.03 613.98 416.79A 1.35 0.8 -75.69 0 1 614.03 416.96L 615.53 425.27L 523.28 425.64A 0.4 0.4 -88.25 0 0 522.88 426.04L 523.21 745.78L 522.57 745.44A 1.23 1.16 -87.2 0 1 522.02 744.8C 521.64 743.78 521.19 743.14 519.95 743Q 517.86 742.74 514.35 741.88A 7.24 7.08 50.84 0 0 512.59 741.68Q 511.46 741.69 510.01 741.8Q 504.15 742.25 501.65 744.65L 501.65 426.21A 0.54 0.54 45 0 0 501.11 425.67L 414.15 425.53L 413 414.34A 5.22 5.1 -41.08 0 1 413.15 412.46Q 414.43 407.57 413.51 404.12L 611.58 404.1Z" fill="#73726d"/></svg>