<svg xmlns="http://www.w3.org/2000/svg" viewBox="0 0 512 512" width="512" height="512"><g stroke-width="2" fill="none" stroke-linecap="butt"><path d="M 337.17 255.96Q 337.15 390.18 337.12 397.65Q 337.08 407.76 335.65 411.37Q 332.79 418.59 325.35 422.88A 0.48 0.47 41.15 0 0 325.41 423.73C 334.64 427.6 339.9 424.71 349.44 419.67Q 352.9 417.84 409.16 388.69Q 417.55 384.34 420.29 380.98Q 425.59 374.47 425.61 367.04Q 425.63 363.19 425.64 255.97Q 425.66 148.76 425.65 144.91Q 425.63 137.47 420.33 130.96Q 417.59 127.6 409.21 123.25Q 352.95 94.08 349.5 92.25C 339.96 87.2 334.7 84.31 325.47 88.18A 0.48 0.47 -41.13 0 0 325.41 89.03Q 332.85 93.32 335.7 100.54Q 337.13 104.15 337.17 114.26Q 337.2 121.73 337.17 255.96" stroke="rgba(135,133,130,1)" vector-effect="non-scaling-stroke"/><path d="M 221.27 203.54L 275.65 248.04A 0.73 0.73 -45.3 0 0 276.59 248.03L 322.11 209.67A 0.8 0.8 69.78 0 0 322.39 209.06Q 322.36 122.54 322.41 110.22Q 322.43 106.7 321.53 104.93C 319.38 100.68 312.85 99.76 309.97 102.99Q 240.38 181.17 221.21 202.75A 0.55 0.55 -49.61 0 0 221.27 203.54" stroke="rgba(50,47,41,1)" vector-effect="non-scaling-stroke"/><path d="M 89.02 174.91Q 94.41 174.28 98.38 178.6Q 216.21 306.94 306.74 405.38C 309.86 408.77 312.2 411.77 316.59 410.56Q 322.43 408.94 322.42 402.5Q 322.34 345.99 322.44 305.67A 1.13 1.13 19.51 0 0 322.02 304.79Q 266.5 259.41 142.86 158.36Q 137.5 153.98 134.93 153.21Q 130.45 151.87 125.57 153.79C 115.27 157.83 105.37 163.19 94.9 168.77C 92.17 170.22 90.11 171.97 88.66 174.36A 0.37 0.36 12.21 0 0 89.02 174.91" stroke="rgba(135,133,130,1)" vector-effect="non-scaling-stroke"/><path d="M 88.9 189.96A 1.47 1.47 -76.22 0 0 86.36 190.97L 86.36 328.16A 1.47 1.47 -56.21 0 0 88.92 329.15L 130.26 283.26A 1.47 1.47 60.35 0 0 130.64 282.28L 130.64 234.52A 1.47 1.47 27.64 0 0 130.24 233.5L 88.9 189.96" stroke="rgba(135,133,130,1)" vector-effect="non-scaling-stroke"/><path d="M 88.71 344.98C 90.61 347.69 92.64 349.21 95.82 350.86Q 111.16 358.81 123.85 364.92Q 128.93 367.36 133.94 366.23Q 137.27 365.47 142.59 360.82Q 147.75 356.31 200.57 312.02A 0.43 0.43 -41.37 0 0 200.61 311.4L 162.26 269.55A 0.36 0.35 -45.55 0 0 161.74 269.56Q 136.82 297.5 100.38 338.38C 96.69 342.52 94.19 344.65 89.01 344.42A 0.36 0.35 73.74 0 0 88.71 344.98" stroke="rgba(50,47,41,1)" vector-effect="non-scaling-stroke"/></g><path d="M 413.92 0Q 416.58 0.17 419.23 0.39Q 451.54 2.98 475.4 22.85C 498.04 41.71 511.22 68.46 512 97.95L 512 415.98C 509.24 469.27 467.29 510.18 414.09 512L 96.26 512C 43.4 509.37 1.51 467.55 0 414.08L 0 98.1Q 1.43 57.47 29.1 29.61Q 56.23 2.3 96.14 0L 413.92 0Z" fill="#0e0b04"/><path d="M 425.64 255.97Q 425.63 363.19 425.61 367.04Q 425.59 374.47 420.29 380.98Q 417.55 384.34 409.16 388.69Q 352.9 417.84 349.44 419.67C 339.9 424.71 334.64 427.6 325.41 423.73A 0.48 0.47 41.15 0 1 325.35 422.88Q 332.79 418.59 335.65 411.37Q 337.08 407.76 337.12 397.65Q 337.15 390.18 337.17 255.96Q 337.2 121.73 337.17 114.26Q 337.13 104.15 335.7 100.54Q 332.85 93.32 325.41 89.03A 0.48 0.47 -41.13 0 1 325.47 88.18C 334.7 84.31 339.96 87.2 349.5 92.25Q 352.95 94.08 409.21 123.25Q 417.59 127.6 420.33 130.96Q 425.63 137.47 425.65 144.91Q 425.66 148.76 425.64 255.97Z" fill="#ffffff"/><path d="M 221.21 202.75Q 240.38 181.17 309.97 102.99C 312.85 99.76 319.38 100.68 321.53 104.93Q 322.43 106.7 322.41 110.22Q 322.36 122.54 322.39 209.06A 0.8 0.8 69.78 0 1 322.11 209.67L 276.59 248.03A 0.73 0.73 -45.3 0 1 275.65 248.04L 221.27 203.54A 0.55 0.55 -49.61 0 1 221.21 202.75Z" fill="#55534e"/><path d="M 89.02 174.91A 0.37 0.36 12.21 0 1 88.66 174.36C 90.11 171.97 92.17 170.22 94.9 168.77C 105.37 163.19 115.27 157.83 125.57 153.79Q 130.45 151.87 134.93 153.21Q 137.5 153.98 142.86 158.36Q 266.5 259.41 322.02 304.79A 1.13 1.13 19.51 0 1 322.44 305.67Q 322.34 345.99 322.42 402.5Q 322.43 408.94 316.59 410.56C 312.2 411.77 309.86 408.77 306.74 405.38Q 216.21 306.94 98.38 178.6Q 94.41 174.28 89.02 174.91Z" fill="#ffffff"/><path d="M 88.9 189.96L 130.24 233.5A 1.47 1.47 -25.09 0 1 130.64 234.52L 130.64 282.28A 1.47 1.47 -73.33 0 1 130.26 283.26L 88.92 329.15A 1.47 1.47 -66.58 0 1 86.36 328.16L 86.36 190.97A 1.47 1.47 -30.51 0 1 88.9 189.96Z" fill="#ffffff"/><path d="M 88.71 344.98A 0.36 0.35 73.74 0 1 89.01 344.42C 94.19 344.65 96.69 342.52 100.38 338.38Q 136.82 297.5 161.74 269.56A 0.36 0.35 -45.55 0 1 162.26 269.55L 200.61 311.4A 0.43 0.43 -41.37 0 1 200.57 312.02Q 147.75 356.31 142.59 360.82Q 137.27 365.47 133.94 366.23Q 128.93 367.36 123.85 364.92Q 111.16 358.81 95.82 350.86C 92.64 349.21 90.61 347.69 88.71 344.98Z" fill="#55534e"/></svg>