<svg xmlns="http://www.w3.org/2000/svg" viewBox="0 0 1024 1024" width="1024" height="1024"><g stroke-width="2" fill="none" stroke-linecap="butt"><path d="M 655.41 508.42L 652.46 511.76A 1.32 1.31 7.31 0 1 652.03 512.09Q 649.38 513.34 647.93 513.35Q 640.98 513.39 638.26 513.39A 2.65 1.52 33.56 0 1 637.95 513.37L 629.26 511.82" stroke="rgba(50,48,41,1)" vector-effect="non-scaling-stroke"/><path d="M 629.26 511.82L 627.93 507.84A 4.39 4.38 -9.22 0 0 623.77 504.85L 546.03 504.85A 0.89 0.89 89.34 0 1 545.14 503.98Q 544.91 495.49 545.04 490.07C 545.23 481.91 542.95 476.23 535.91 472.52C 531.24 470.07 523.61 471.23 519.41 470.9A 0.66 0.66 87.77 0 1 518.81 470.34C 518.03 464.97 518.18 459.09 519 454.17Q 520.18 447 526.84 441.48C 530.87 438.12 535.35 436.92 541.11 436.94Q 551.89 436.97 554.46 436.79Q 569.36 435.72 579.37 425.45Q 584.13 420.57 587.14 412.93Q 589.14 407.88 589.19 400.87Q 589.24 393.69 589.21 380.35Q 589.19 373.14 587.24 368.13Q 583.77 359.22 577.78 353.78Q 567.44 344.39 553.7 344.09Q 540.82 343.81 538.66 343.84A 7.47 7.41 51.8 0 1 536.71 343.6Q 524.9 340.51 520.86 330Q 519.39 326.17 519.43 315.31Q 519.55 286.93 519.47 267.56Q 519.46 263.45 518.85 261.64C 516.22 253.84 504.61 255.98 504.69 264.55C 504.87 283.97 504.17 302.51 504.69 321.89C 504.98 332.51 508.07 340.76 515.39 348.06Q 520.86 353.51 527.47 356.06C 536.39 359.51 545.19 358.95 556.06 359.01A 5.73 5.68 52.39 0 1 557.4 359.19Q 570.42 362.54 573.86 374.38Q 575 378.31 574.98 386.12Q 574.96 390.26 574.92 397.99C 574.86 408.81 570.35 417.01 560.32 420.83C 554.8 422.93 545.33 421.8 539.77 422.08Q 520.67 423.03 510.24 437.73Q 507.06 442.22 505.1 448.62C 503.21 454.83 503.79 465.64 503.51 470.51A 0.44 0.44 -88.56 0 1 503.08 470.92L 492.95 471.05A 5.35 5.17 -52.35 0 0 491.59 471.25Q 482.7 473.67 479.64 481.44Q 478.25 484.98 478.54 492.43Q 478.72 496.99 478.5 503.64A 1.02 1.01 -89.1 0 1 477.5 504.62C 468.8 504.71 459.9 505 452.5 505.01Q 431.8 505.03 289.52 504.96Q 279.62 504.95 276.09 505.99C 266.92 508.69 259.73 516.08 257.22 525.37Q 255.98 529.92 255.99 539.96Q 256.01 563.36 256.01 733.23Q 256.01 744.01 257.56 748.52C 260.59 757.3 268.81 765.23 278.2 766.76C 280.45 767.13 283.78 767.59 286.95 767.6Q 509.63 767.86 736.27 767.61C 743.49 767.6 749.93 766.76 755.61 762.62Q 764.5 756.15 767.19 746.41Q 768.03 743.33 768.02 726.99Q 767.94 621.51 768.04 541.58Q 768.05 528.97 766.48 524.13C 763.08 513.6 752.73 505.14 741.47 505.03Q 726.62 504.87 678.87 504.98C 672.22 504.99 665.88 504.63 659.35 505.11A 1.92 1.92 25.91 0 0 658.45 505.42Q 656.54 506.7 655.41 508.42" stroke="rgba(135,134,130,1)" vector-effect="non-scaling-stroke"/><path d="M 629.26 511.82Q 629.35 518.2 622.46 519.78A 3.7 3.64 -51.21 0 1 621.61 519.88Q 310.52 519.92 284.65 519.85Q 280.58 519.83 278.4 521.08C 272.09 524.7 270.94 529.11 270.97 536.58Q 271.03 553.91 270.99 735.33Q 270.99 741.23 271.62 743.1C 273.4 748.43 278.19 752.35 284 752.35Q 508.42 752.34 739.25 752.34Q 739.84 752.34 743.42 751.93A 3.19 3.05 27.85 0 0 744.37 751.66Q 749.41 749.36 751.73 744.87Q 753.01 742.41 753 734.9Q 753 554.25 752.98 533.26Q 752.98 524.26 743.8 520.29A 4.28 4.27 -32.9 0 0 742.06 519.92L 662.08 519.85A 1.93 1.4 42.82 0 1 661.67 519.8Q 652.15 517.73 655.41 508.42" stroke="rgba(170,169,167,1)" vector-effect="non-scaling-stroke"/><path d="M 530.03 487.33A 1.29 1.29 0 0 0 528.74 486.04L 494.94 486.04A 1.29 1.29 0 0 0 493.65 487.33L 493.65 503.35A 1.29 1.29 0 0 0 494.94 504.64L 528.74 504.64A 1.29 1.29 0 0 0 530.03 503.35L 530.03 487.33" stroke="rgba(135,134,130,1)" vector-effect="non-scaling-stroke"/><path d="M 345.99 552.7A 12.68 12.68 0 0 0 333.33 540L 301.19 539.94A 12.68 12.68 0 0 0 288.49 552.6L 288.43 582.14A 12.68 12.68 0 0 0 301.09 594.84L 333.23 594.9A 12.68 12.68 0 0 0 345.93 582.24L 345.99 552.7" stroke="rgba(150,149,145,1)" vector-effect="non-scaling-stroke"/><path d="M 410.95 552.7A 12.79 12.79 0 0 0 398.14 539.93L 366.08 539.99A 12.79 12.79 0 0 0 353.31 552.8L 353.37 582.14A 12.79 12.79 0 0 0 366.18 594.91L 398.24 594.85A 12.79 12.79 0 0 0 411.01 582.04L 410.95 552.7" stroke="rgba(150,149,145,1)" vector-effect="non-scaling-stroke"/><path d="M 475.97 552.85A 12.84 12.84 0 0 0 463.15 539.99L 431.17 539.93A 12.84 12.84 0 0 0 418.31 552.75L 418.25 581.99A 12.84 12.84 0 0 0 431.07 594.85L 463.05 594.91A 12.84 12.84 0 0 0 475.91 582.09L 475.97 552.85" stroke="rgba(150,149,145,1)" vector-effect="non-scaling-stroke"/><path d="M 540.82 552.9A 12.94 12.94 0 0 0 527.86 539.98L 496.04 540.04A 12.94 12.94 0 0 0 483.12 553L 483.18 581.96A 12.94 12.94 0 0 0 496.14 594.88L 527.96 594.82A 12.94 12.94 0 0 0 540.88 581.86L 540.82 552.9" stroke="rgba(150,149,145,1)" vector-effect="non-scaling-stroke"/><path d="M 605.76 552.86A 12.85 12.85 0 0 0 592.93 539.99L 560.95 539.93A 12.85 12.85 0 0 0 548.08 552.76L 548.02 581.98A 12.85 12.85 0 0 0 560.85 594.85L 592.83 594.91A 12.85 12.85 0 0 0 605.7 582.08L 605.76 552.86" stroke="rgba(150,149,145,1)" vector-effect="non-scaling-stroke"/><path d="M 670.68 552.78A 12.77 12.77 0 0 0 657.93 539.99L 625.85 539.93A 12.77 12.77 0 0 0 613.06 552.68L 613 582.06A 12.77 12.77 0 0 0 625.75 594.85L 657.83 594.91A 12.77 12.77 0 0 0 670.62 582.16L 670.68 552.78" stroke="rgba(150,149,145,1)" vector-effect="non-scaling-stroke"/><path d="M 735.61 552.74A 12.67 12.67 0 0 0 722.99 540.03L 690.81 539.91A 12.67 12.67 0 0 0 678.09 552.54L 677.99 582.1A 12.67 12.67 0 0 0 690.61 594.81L 722.79 594.93A 12.67 12.67 0 0 0 735.51 582.3L 735.61 552.74" stroke="rgba(150,149,145,1)" vector-effect="non-scaling-stroke"/><path d="M 374.37 624.77A 12.74 12.74 0 0 0 361.65 612L 301.23 611.9A 12.74 12.74 0 0 0 288.47 624.62L 288.41 654.17A 12.74 12.74 0 0 0 301.13 666.94L 361.55 667.04A 12.74 12.74 0 0 0 374.31 654.32L 374.37 624.77" stroke="rgba(150,149,145,1)" vector-effect="non-scaling-stroke"/><path d="M 440.54 624.7A 12.78 12.78 0 0 0 427.76 611.92L 395.74 611.92A 12.78 12.78 0 0 0 382.96 624.7L 382.96 654.22A 12.78 12.78 0 0 0 395.74 667L 427.76 667A 12.78 12.78 0 0 0 440.54 654.22L 440.54 624.7" stroke="rgba(150,149,145,1)" vector-effect="non-scaling-stroke"/><path d="M 507.31 624.57A 12.65 12.65 0 0 0 494.66 611.92L 462.52 611.92A 12.65 12.65 0 0 0 449.87 624.57L 449.87 654.35A 12.65 12.65 0 0 0 462.52 667L 494.66 667A 12.65 12.65 0 0 0 507.31 654.35L 507.31 624.57" stroke="rgba(150,149,145,1)" vector-effect="non-scaling-stroke"/><path d="M 574.17 624.62A 12.65 12.65 0 0 0 561.54 611.95L 529.38 611.89A 12.65 12.65 0 0 0 516.71 624.52L 516.65 654.3A 12.65 12.65 0 0 0 529.28 666.97L 561.44 667.03A 12.65 12.65 0 0 0 574.11 654.4L 574.17 624.62" stroke="rgba(150,149,145,1)" vector-effect="non-scaling-stroke"/><path d="M 641.09 624.76A 12.79 12.79 0 0 0 628.32 611.95L 596.28 611.89A 12.79 12.79 0 0 0 583.47 624.66L 583.41 654.16A 12.79 12.79 0 0 0 596.18 666.97L 628.22 667.03A 12.79 12.79 0 0 0 641.03 654.26L 641.09 624.76" stroke="rgba(150,149,145,1)" vector-effect="non-scaling-stroke"/><path d="M 735.6 624.76A 12.74 12.74 0 0 0 722.88 611.99L 662.44 611.89A 12.74 12.74 0 0 0 649.68 624.61L 649.62 654.18A 12.74 12.74 0 0 0 662.34 666.95L 722.78 667.05A 12.74 12.74 0 0 0 735.54 654.33L 735.6 624.76" stroke="rgba(150,149,145,1)" vector-effect="non-scaling-stroke"/><path d="M 346.04 696.76A 12.81 12.81 0 0 0 333.23 683.95L 301.21 683.95A 12.81 12.81 0 0 0 288.4 696.76L 288.4 726.2A 12.81 12.81 0 0 0 301.21 739.01L 333.23 739.01A 12.81 12.81 0 0 0 346.04 726.2L 346.04 696.76" stroke="rgba(150,149,145,1)" vector-effect="non-scaling-stroke"/><path d="M 649.21 723.76L 374.84 723.76A 0.45 0.45 45.01 0 1 374.39 723.31L 374.39 699.43A 0.31 0.31 -45 0 1 374.7 699.12L 392.87 699.12A 1.99 1.94 33.52 0 0 393.6 698.98C 398.03 697.27 400.28 693.98 399 689.23C 398.15 686.05 394.73 683.89 391.5 683.94Q 390.1 683.97 378.48 683.87Q 368.52 683.78 365.78 685.41C 359.7 689.03 359.08 693.89 359.09 701.28Q 359.12 725.16 359.12 725.23Q 359.4 734.29 366.1 737.61Q 369.11 739.1 377.14 739.1Q 467.11 739.06 647.42 739.09Q 654.08 739.09 656.49 738.18C 664.84 735.02 664.94 728.33 664.99 718.82Q 665.03 710.81 664.79 698.04Q 664.54 683.93 650.66 683.93Q 439.34 683.94 435.58 683.89C 429.48 683.8 425.03 684.8 424.22 691.23A 3.64 3.5 -47.74 0 0 424.25 692.26Q 425.2 697.46 429.64 698.86Q 430.49 699.13 438.47 699.13Q 563.02 699.13 649.27 699.12A 0.35 0.34 -90 0 1 649.61 699.47L 649.61 723.37A 0.4 0.39 -0 0 1 649.21 723.76" stroke="rgba(150,149,145,1)" vector-effect="non-scaling-stroke"/><path d="M 735.64 696.82A 12.83 12.83 0 0 0 722.83 683.97L 690.83 683.91A 12.83 12.83 0 0 0 677.98 696.72L 677.92 726.14A 12.83 12.83 0 0 0 690.73 738.99L 722.73 739.05A 12.83 12.83 0 0 0 735.58 726.24L 735.64 696.82" stroke="rgba(150,149,145,1)" vector-effect="non-scaling-stroke"/><path d="M 330.99 555.67A 0.66 0.66 0 0 0 330.33 555.01L 304.37 555.01A 0.66 0.66 0 0 0 303.71 555.67L 303.71 579.17A 0.66 0.66 0 0 0 304.37 579.83L 330.33 579.83A 0.66 0.66 0 0 0 330.99 579.17L 330.99 555.67" stroke="rgba(165,164,160,1)" vector-effect="non-scaling-stroke"/><path d="M 395.92 555.69A 0.69 0.69 0 0 0 395.23 555L 369.23 555A 0.69 0.69 0 0 0 368.54 555.69L 368.54 579.13A 0.69 0.69 0 0 0 369.23 579.82L 395.23 579.82A 0.69 0.69 0 0 0 395.92 579.13L 395.92 555.69" stroke="rgba(165,164,160,1)" vector-effect="non-scaling-stroke"/><path d="M 460.86 555.73A 0.72 0.72 0 0 0 460.14 555.01L 434.1 555.01A 0.72 0.72 0 0 0 433.38 555.73L 433.38 579.11A 0.72 0.72 0 0 0 434.1 579.83L 460.14 579.83A 0.72 0.72 0 0 0 460.86 579.11L 460.86 555.73" stroke="rgba(165,164,160,1)" vector-effect="non-scaling-stroke"/><path d="M 525.88 555.59A 0.74 0.74 0 0 0 525.14 554.85L 498.86 554.85A 0.74 0.74 0 0 0 498.12 555.59L 498.12 579.19A 0.74 0.74 0 0 0 498.86 579.93L 525.14 579.93A 0.74 0.74 0 0 0 525.88 579.19L 525.88 555.59" stroke="rgba(165,164,160,1)" vector-effect="non-scaling-stroke"/><path d="M 590.62 555.76A 0.75 0.75 0 0 0 589.87 555.01L 563.89 555.01A 0.75 0.75 0 0 0 563.14 555.76L 563.14 579.08A 0.75 0.75 0 0 0 563.89 579.83L 589.87 579.83A 0.75 0.75 0 0 0 590.62 579.08L 590.62 555.76" stroke="rgba(165,164,160,1)" vector-effect="non-scaling-stroke"/><path d="M 655.46 555.7A 0.69 0.69 0 0 0 654.77 555.01L 628.75 555.01A 0.69 0.69 0 0 0 628.06 555.7L 628.06 579.14A 0.69 0.69 0 0 0 628.75 579.83L 654.77 579.83A 0.69 0.69 0 0 0 655.46 579.14L 655.46 555.7" stroke="rgba(165,164,160,1)" vector-effect="non-scaling-stroke"/><path d="M 720.3 555.57A 0.56 0.56 0 0 0 719.74 555.01L 693.56 555.01A 0.56 0.56 0 0 0 693 555.57L 693 579.27A 0.56 0.56 0 0 0 693.56 579.83L 719.74 579.83A 0.56 0.56 0 0 0 720.3 579.27L 720.3 555.57" stroke="rgba(165,164,160,1)" vector-effect="non-scaling-stroke"/><path d="M 359.08 627.66A 0.66 0.66 0 0 0 358.42 627L 304.26 627A 0.66 0.66 0 0 0 303.6 627.66L 303.6 651.2A 0.66 0.66 0 0 0 304.26 651.86L 358.42 651.86A 0.66 0.66 0 0 0 359.08 651.2L 359.08 627.66" stroke="rgba(165,164,160,1)" vector-effect="non-scaling-stroke"/><path d="M 425.35 627.59A 0.59 0.59 0 0 0 424.76 627L 398.62 627A 0.59 0.59 0 0 0 398.03 627.59L 398.03 651.23A 0.59 0.59 0 0 0 398.62 651.82L 424.76 651.82A 0.59 0.59 0 0 0 425.35 651.23L 425.35 627.59" stroke="rgba(165,164,160,1)" vector-effect="non-scaling-stroke"/><path d="M 492.04 627.5A 0.51 0.51 0 0 0 491.53 626.99L 465.51 626.99A 0.51 0.51 0 0 0 465 627.5L 465 651.32A 0.51 0.51 0 0 0 465.51 651.83L 491.53 651.83A 0.51 0.51 0 0 0 492.04 651.32L 492.04 627.5" stroke="rgba(165,164,160,1)" vector-effect="non-scaling-stroke"/><path d="M 559 627.6A 0.6 0.6 0 0 0 558.4 627L 532.54 627A 0.6 0.6 0 0 0 531.94 627.6L 531.94 651.22A 0.6 0.6 0 0 0 532.54 651.82L 558.4 651.82A 0.6 0.6 0 0 0 559 651.22L 559 627.6" stroke="rgba(165,164,160,1)" vector-effect="non-scaling-stroke"/><path d="M 625.96 627.65A 0.65 0.65 0 0 0 625.31 627L 599.31 627A 0.65 0.65 0 0 0 598.66 627.65L 598.66 651.17A 0.65 0.65 0 0 0 599.31 651.82L 625.31 651.82A 0.65 0.65 0 0 0 625.96 651.17L 625.96 627.65" stroke="rgba(165,164,160,1)" vector-effect="non-scaling-stroke"/><path d="M 720.42 627.55A 0.55 0.55 0 0 0 719.87 627L 665.43 627A 0.55 0.55 0 0 0 664.88 627.55L 664.88 651.29A 0.55 0.55 0 0 0 665.43 651.84L 719.87 651.84A 0.55 0.55 0 0 0 720.42 651.29L 720.42 627.55" stroke="rgba(165,164,160,1)" vector-effect="non-scaling-stroke"/><path d="M 330.94 699.64A 0.62 0.62 0 0 0 330.32 699.02L 304.26 699.02A 0.62 0.62 0 0 0 303.64 699.64L 303.64 723.22A 0.62 0.62 0 0 0 304.26 723.84L 330.32 723.84A 0.62 0.62 0 0 0 330.94 723.22L 330.94 699.64" stroke="rgba(165,164,160,1)" vector-effect="non-scaling-stroke"/><path d="M 720.36 699.59A 0.56 0.56 0 0 0 719.8 699.03L 693.62 699.03A 0.56 0.56 0 0 0 693.06 699.59L 693.06 723.29A 0.56 0.56 0 0 0 693.62 723.85L 719.8 723.85A 0.56 0.56 0 0 0 720.36 723.29L 720.36 699.59" stroke="rgba(165,164,160,1)" vector-effect="non-scaling-stroke"/></g><path d="M 827.74 0Q 848.67 0.22 868.87 5.7C 872.87 6.79 876.12 6.82 879.88 8.16Q 886.76 10.61 893.15 12.53A 25.8 25.53 68.29 0 1 898.69 14.95Q 901.89 16.82 909.51 20.08C 915.75 22.75 921.48 26.55 927.81 29.54Q 931.83 31.45 934.09 33.16Q 940.01 37.67 941.29 38.26A 3.63 3.6 81.4 0 1 942.5 39.16Q 944.46 41.32 948.92 44.39Q 950.99 45.81 955.03 49.62Q 966.87 60.77 977.62 72.38Q 981.06 76.11 985.18 83.07Q 985.67 83.89 989.81 88.85A 8.35 7.95 -81.17 0 1 990.74 90.19Q 994.97 97.79 997.16 100.96C 1000.36 105.62 1002.29 111.7 1004.68 115.7Q 1005.89 117.7 1007.45 122.39Q 1008.38 125.17 1010.48 128.78C 1012.34 131.96 1013.28 137.39 1015.05 141.97Q 1016.61 145.99 1016.69 150.5C 1016.72 151.96 1018.25 154.74 1018.72 156.79C 1020.8 165.92 1023.04 174.63 1023.53 184.36Q 1023.83 190.18 1024 195.99L 1024 832.19C 1023.68 842.87 1022.46 849.88 1020.78 859.43Q 1019.73 865.45 1017.93 871.33Q 1012.64 888.63 1007.19 903.09Q 1006.09 906.02 1004.63 908.89C 1001.93 914.21 1000.34 917.48 996.98 922.78Q 992.7 929.52 989.99 934.97A 7.66 7.33 -13.47 0 1 989.21 936.18Q 984.24 942.39 977.18 951.43C 966.78 964.75 955.31 974.66 939.82 985.98C 934.7 989.72 930.66 993.73 925.12 995.71A 6.63 6.52 17.82 0 0 923.55 996.5Q 919.82 999.04 917.55 1000.06Q 905.03 1005.72 895.86 1010.48A 1.93 1.31 10.9 0 1 895.58 1010.6L 874.12 1017.26A 7.4 6.53 30.13 0 1 872.82 1017.52Q 872.41 1017.53 870.56 1017.97Q 862.22 1019.98 854.25 1021.74Q 846.64 1023.43 827.87 1024L 192.51 1024C 186.24 1023.76 179.82 1023.63 173.67 1022.41Q 166.56 1021 166.11 1020.94C 162.14 1020.34 159.05 1019.02 155.05 1018.26C 146.58 1016.65 140.61 1014.26 129.08 1010.54Q 123.88 1008.86 116.8 1005.22C 107.53 1000.44 97.79 995.92 89.67 989.89C 82.22 984.36 75.74 980.66 69.39 974.68Q 57.33 963.34 47.27 952.35C 43.35 948.06 40.63 943.16 36.35 937.69Q 32.7 933.02 29.14 926.86Q 19.79 910.69 15.79 900.54C 12.7 892.69 9.25 883.39 7.36 874.06Q 6.29 868.77 4.13 862.78A 5.21 4.85 31.65 0 1 3.94 862.09L 0.47 843.47A 5.98 5.85 -51.51 0 1 0.37 842.5L 0 827.87L 0 196.5Q 0.03 182.67 1.03 177.54Q 4.28 160.89 4.35 160.48C 5.35 154.16 7.94 148.08 9.12 142.04A 6.7 6.62 65.79 0 1 9.85 140.08Q 11.9 136.48 12.6 132.27C 13.26 128.28 15.46 125.08 16.74 121.04A 12.04 12.03 69.27 0 1 17.91 118.44C 20.21 114.68 21.99 109.58 24.38 105.52C 29.25 97.26 32.63 90.2 38.22 83.57C 41.4 79.79 44.18 75.48 48.12 70.98Q 55.93 62.03 59.07 58.82Q 60.1 57.76 69.3 49.53Q 74.64 44.75 78.92 41.76C 82.9 38.97 87.22 35.15 92.24 32.01C 102.03 25.85 113.08 20.68 123.64 15.4Q 126.31 14.06 130.93 12.7Q 135.11 11.47 138.33 10.33Q 147.03 7.25 149.76 6.77Q 154.75 5.88 156.65 5.28C 164.21 2.89 173.02 1.8 179.74 0.71C 183.5 0.1 188 0.2 192.14 0L 827.74 0ZM 655.41 508.42L 652.46 511.76A 1.32 1.31 7.31 0 1 652.03 512.09Q 649.38 513.34 647.93 513.35Q 640.98 513.39 638.26 513.39A 2.65 1.52 33.56 0 1 637.95 513.37L 629.26 511.82L 627.93 507.84A 4.39 4.38 -9.22 0 0 623.77 504.85L 546.03 504.85A 0.89 0.89 89.34 0 1 545.14 503.98Q 544.91 495.49 545.04 490.07C 545.23 481.91 542.95 476.23 535.91 472.52C 531.24 470.07 523.61 471.23 519.41 470.9A 0.66 0.66 87.77 0 1 518.81 470.34C 518.03 464.97 518.18 459.09 519 454.17Q 520.18 447 526.84 441.48C 530.87 438.12 535.35 436.92 541.11 436.94Q 551.89 436.97 554.46 436.79Q 569.36 435.72 579.37 425.45Q 584.13 420.57 587.14 412.93Q 589.14 407.88 589.19 400.87Q 589.24 393.69 589.21 380.35Q 589.19 373.14 587.24 368.13Q 583.77 359.22 577.78 353.78Q 567.44 344.39 553.7 344.09Q 540.82 343.81 538.66 343.84A 7.47 7.41 51.8 0 1 536.71 343.6Q 524.9 340.51 520.86 330Q 519.39 326.17 519.43 315.31Q 519.55 286.93 519.47 267.56Q 519.46 263.45 518.85 261.64C 516.22 253.84 504.61 255.98 504.69 264.55C 504.87 283.97 504.17 302.51 504.69 321.89C 504.98 332.51 508.07 340.76 515.39 348.06Q 520.86 353.51 527.47 356.06C 536.39 359.51 545.19 358.95 556.06 359.01A 5.73 5.68 52.39 0 1 557.4 359.19Q 570.42 362.54 573.86 374.38Q 575 378.31 574.98 386.12Q 574.96 390.26 574.92 397.99C 574.86 408.81 570.35 417.01 560.32 420.83C 554.8 422.93 545.33 421.8 539.77 422.08Q 520.67 423.03 510.24 437.73Q 507.06 442.22 505.1 448.62C 503.21 454.83 503.79 465.64 503.51 470.51A 0.44 0.44 -88.56 0 1 503.08 470.92L 492.95 471.05A 5.35 5.17 -52.35 0 0 491.59 471.25Q 482.7 473.67 479.64 481.44Q 478.25 484.98 478.54 492.43Q 478.72 496.99 478.5 503.64A 1.02 1.01 -89.1 0 1 477.5 504.62C 468.8 504.71 459.9 505 452.5 505.01Q 431.8 505.03 289.52 504.96Q 279.62 504.95 276.09 505.99C 266.92 508.69 259.73 516.08 257.22 525.37Q 255.98 529.92 255.99 539.96Q 256.01 563.36 256.01 733.23Q 256.01 744.01 257.56 748.52C 260.59 757.3 268.81 765.23 278.2 766.76C 280.45 767.13 283.78 767.59 286.95 767.6Q 509.63 767.86 736.27 767.61C 743.49 767.6 749.93 766.76 755.61 762.62Q 764.5 756.15 767.19 746.41Q 768.03 743.33 768.02 726.99Q 767.94 621.51 768.04 541.58Q 768.05 528.97 766.48 524.13C 763.08 513.6 752.73 505.14 741.47 505.03Q 726.62 504.87 678.87 504.98C 672.22 504.99 665.88 504.63 659.35 505.11A 1.92 1.92 25.91 0 0 658.45 505.42Q 656.54 506.7 655.41 508.42Z" fill="#0e0c04"/><path d="M 629.26 511.82Q 629.35 518.2 622.46 519.78A 3.7 3.64 -51.21 0 1 621.61 519.88Q 310.52 519.92 284.65 519.85Q 280.58 519.83 278.4 521.08C 272.09 524.7 270.94 529.11 270.97 536.58Q 271.03 553.91 270.99 735.33Q 270.99 741.23 271.62 743.1C 273.4 748.43 278.19 752.35 284 752.35Q 508.42 752.34 739.25 752.34Q 739.84 752.34 743.42 751.93A 3.19 3.05 27.85 0 0 744.37 751.66Q 749.41 749.36 751.73 744.87Q 753.01 742.41 753 734.9Q 753 554.25 752.98 533.26Q 752.98 524.26 743.8 520.29A 4.28 4.27 -32.9 0 0 742.06 519.92L 662.08 519.85A 1.93 1.4 42.82 0 1 661.67 519.8Q 652.15 517.73 655.41 508.42Q 656.54 506.7 658.45 505.42A 1.92 1.92 25.91 0 1 659.35 505.11C 665.88 504.63 672.22 504.99 678.87 504.98Q 726.62 504.87 741.47 505.03C 752.73 505.14 763.08 513.6 766.48 524.13Q 768.05 528.97 768.04 541.58Q 767.94 621.51 768.02 726.99Q 768.03 743.33 767.19 746.41Q 764.5 756.15 755.61 762.62C 749.93 766.76 743.49 767.6 736.27 767.61Q 509.63 767.86 286.95 767.6C 283.78 767.59 280.45 767.13 278.2 766.76C 268.81 765.23 260.59 757.3 257.56 748.52Q 256.01 744.01 256.01 733.23Q 256.01 563.36 255.99 539.96Q 255.98 529.92 257.22 525.37C 259.73 516.08 266.92 508.69 276.09 505.99Q 279.62 504.95 289.52 504.96Q 431.8 505.03 452.5 505.01C 459.9 505 468.8 504.71 477.5 504.62A 1.02 1.01 -89.1 0 0 478.5 503.64Q 478.72 496.99 478.54 492.43Q 478.25 484.98 479.64 481.44Q 482.7 473.67 491.59 471.25A 5.35 5.17 -52.35 0 1 492.95 471.05L 503.08 470.92A 0.44 0.44 -88.56 0 0 503.51 470.51C 503.79 465.64 503.21 454.83 505.1 448.62Q 507.06 442.22 510.24 437.73Q 520.67 423.03 539.77 422.08C 545.33 421.8 554.8 422.93 560.32 420.83C 570.35 417.01 574.86 408.81 574.92 397.99Q 574.96 390.26 574.98 386.12Q 575 378.31 573.86 374.38Q 570.42 362.54 557.4 359.19A 5.73 5.68 52.39 0 0 556.06 359.01C 545.19 358.95 536.39 359.51 527.47 356.06Q 520.86 353.51 515.39 348.06C 508.07 340.76 504.98 332.51 504.69 321.89C 504.17 302.51 504.87 283.97 504.69 264.55C 504.61 255.98 516.22 253.84 518.85 261.64Q 519.46 263.45 519.47 267.56Q 519.55 286.93 519.43 315.31Q 519.39 326.17 520.86 330Q 524.9 340.51 536.71 343.6A 7.47 7.41 51.8 0 0 538.66 343.84Q 540.82 343.81 553.7 344.09Q 567.44 344.39 577.78 353.78Q 583.77 359.22 587.24 368.13Q 589.19 373.14 589.21 380.35Q 589.24 393.69 589.19 400.87Q 589.14 407.88 587.14 412.93Q 584.13 420.57 579.37 425.45Q 569.36 435.72 554.46 436.79Q 551.89 436.97 541.11 436.94C 535.35 436.92 530.87 438.12 526.84 441.48Q 520.18 447 519 454.17C 518.18 459.09 518.03 464.97 518.81 470.34A 0.66 0.66 87.77 0 0 519.41 470.9C 523.61 471.23 531.24 470.07 535.91 472.52C 542.95 476.23 545.23 481.91 545.04 490.07Q 544.91 495.49 545.14 503.98A 0.89 0.89 89.34 0 0 546.03 504.85L 623.77 504.85A 4.39 4.38 -9.22 0 1 627.93 507.84L 629.26 511.82ZM 530.03 487.33A 1.29 1.29 0 0 0 528.74 486.04L 494.94 486.04A 1.29 1.29 0 0 0 493.65 487.33L 493.65 503.35A 1.29 1.29 0 0 0 494.94 504.64L 528.74 504.64A 1.29 1.29 0 0 0 530.03 503.35L 530.03 487.33Z" fill="#ffffff"/><path d="M 530.03 503.35A 1.29 1.29 0 0 1 528.74 504.64L 494.94 504.64A 1.29 1.29 0 0 1 493.65 503.35L 493.65 487.33A 1.29 1.29 0 0 1 494.94 486.04L 528.74 486.04A 1.29 1.29 0 0 1 530.03 487.33L 530.03 503.35Z" fill="#0e0c04"/><path d="M 655.41 508.42Q 652.15 517.73 661.67 519.8A 1.93 1.4 42.82 0 0 662.08 519.85L 742.06 519.92A 4.28 4.27 -32.9 0 1 743.8 520.29Q 752.98 524.26 752.98 533.26Q 753 554.25 753 734.9Q 753.01 742.41 751.73 744.87Q 749.41 749.36 744.37 751.66A 3.19 3.05 27.85 0 1 743.42 751.93Q 739.84 752.34 739.25 752.34Q 508.42 752.34 284 752.35C 278.19 752.35 273.4 748.43 271.62 743.1Q 270.99 741.23 270.99 735.33Q 271.03 553.91 270.97 536.58C 270.94 529.11 272.09 524.7 278.4 521.08Q 280.58 519.83 284.65 519.85Q 310.52 519.92 621.61 519.88A 3.7 3.64 -51.21 0 0 622.46 519.78Q 629.35 518.2 629.26 511.82L 637.95 513.37A 2.65 1.52 33.56 0 0 638.26 513.39Q 640.98 513.39 647.93 513.35Q 649.38 513.34 652.03 512.09A 1.32 1.31 7.31 0 0 652.46 511.76L 655.41 508.42Z" fill="#55534e"/><path d="M 345.93 582.24A 12.68 12.68 0 0 1 333.23 594.9L 301.09 594.84A 12.68 12.68 0 0 1 288.43 582.14L 288.49 552.6A 12.68 12.68 0 0 1 301.19 539.94L 333.33 540A 12.68 12.68 0 0 1 345.99 552.7L 345.93 582.24Z" fill="#d7d6d3"/><path d="M 411.01 582.04A 12.79 12.79 0 0 1 398.24 594.85L 366.18 594.91A 12.79 12.79 0 0 1 353.37 582.14L 353.31 552.8A 12.79 12.79 0 0 1 366.08 539.99L 398.14 539.93A 12.79 12.79 0 0 1 410.95 552.7L 411.01 582.04Z" fill="#d7d6d3"/><path d="M 475.91 582.09A 12.84 12.84 0 0 1 463.05 594.91L 431.07 594.85A 12.84 12.84 0 0 1 418.25 581.99L 418.31 552.75A 12.84 12.84 0 0 1 431.17 539.93L 463.15 539.99A 12.84 12.84 0 0 1 475.97 552.85L 475.91 582.09Z" fill="#d7d6d3"/><path d="M 540.88 581.86A 12.94 12.94 0 0 1 527.96 594.82L 496.14 594.88A 12.94 12.94 0 0 1 483.18 581.96L 483.12 553A 12.94 12.94 0 0 1 496.04 540.04L 527.86 539.98A 12.94 12.94 0 0 1 540.82 552.9L 540.88 581.86Z" fill="#d7d6d3"/><path d="M 605.7 582.08A 12.85 12.85 0 0 1 592.83 594.91L 560.85 594.85A 12.85 12.85 0 0 1 548.02 581.98L 548.08 552.76A 12.85 12.85 0 0 1 560.95 539.93L 592.93 539.99A 12.85 12.85 0 0 1 605.76 552.86L 605.7 582.08Z" fill="#d7d6d3"/><path d="M 670.62 582.16A 12.77 12.77 0 0 1 657.83 594.91L 625.75 594.85A 12.77 12.77 0 0 1 613 582.06L 613.06 552.68A 12.77 12.77 0 0 1 625.85 539.93L 657.93 539.99A 12.77 12.77 0 0 1 670.68 552.78L 670.62 582.16Z" fill="#d7d6d3"/><path d="M 735.51 582.3A 12.67 12.67 0 0 1 722.79 594.93L 690.61 594.81A 12.67 12.67 0 0 1 677.99 582.1L 678.09 552.54A 12.67 12.67 0 0 1 690.81 539.91L 722.99 540.03A 12.67 12.67 0 0 1 735.61 552.74L 735.51 582.3Z" fill="#d7d6d3"/><path d="M 525.88 579.19A 0.74 0.74 0 0 1 525.14 579.93L 498.86 579.93A 0.74 0.74 0 0 1 498.12 579.19L 498.12 555.59A 0.74 0.74 0 0 1 498.86 554.85L 525.14 554.85A 0.74 0.74 0 0 1 525.88 555.59L 525.88 579.19Z" fill="#73726d"/><path d="M 330.99 579.17A 0.66 0.66 0 0 1 330.33 579.83L 304.37 579.83A 0.66 0.66 0 0 1 303.71 579.17L 303.71 555.67A 0.66 0.66 0 0 1 304.37 555.01L 330.33 555.01A 0.66 0.66 0 0 1 330.99 555.67L 330.99 579.17Z" fill="#73726d"/><path d="M 395.92 579.13A 0.69 0.69 0 0 1 395.23 579.82L 369.23 579.82A 0.69 0.69 0 0 1 368.54 579.13L 368.54 555.69A 0.69 0.69 0 0 1 369.23 555L 395.23 555A 0.69 0.69 0 0 1 395.92 555.69L 395.92 579.13Z" fill="#73726d"/><path d="M 460.86 579.11A 0.72 0.72 0 0 1 460.14 579.83L 434.1 579.83A 0.72 0.72 0 0 1 433.38 579.11L 433.38 555.73A 0.72 0.72 0 0 1 434.1 555.01L 460.14 555.01A 0.72 0.72 0 0 1 460.86 555.73L 460.86 579.11Z" fill="#73726d"/><path d="M 590.62 579.08A 0.75 0.75 0 0 1 589.87 579.83L 563.89 579.83A 0.75 0.75 0 0 1 563.14 579.08L 563.14 555.76A 0.75 0.75 0 0 1 563.89 555.01L 589.87 555.01A 0.75 0.75 0 0 1 590.62 555.76L 590.62 579.08Z" fill="#73726d"/><path d="M 655.46 579.14A 0.69 0.69 0 0 1 654.77 579.83L 628.75 579.83A 0.69 0.69 0 0 1 628.06 579.14L 628.06 555.7A 0.69 0.69 0 0 1 628.75 555.01L 654.77 555.01A 0.69 0.69 0 0 1 655.46 555.7L 655.46 579.14Z" fill="#73726d"/><path d="M 720.3 579.27A 0.56 0.56 0 0 1 719.74 579.83L 693.56 579.83A 0.56 0.56 0 0 1 693 579.27L 693 555.57A 0.56 0.56 0 0 1 693.56 555.01L 719.74 555.01A 0.56 0.56 0 0 1 720.3 555.57L 720.3 579.27Z" fill="#73726d"/><path d="M 374.31 654.32A 12.74 12.74 0 0 1 361.55 667.04L 301.13 666.94A 12.74 12.74 0 0 1 288.41 654.18L 288.47 624.62A 12.74 12.74 0 0 1 301.23 611.9L 361.65 612A 12.74 12.74 0 0 1 374.37 624.76L 374.31 654.32Z" fill="#d7d6d3"/><path d="M 440.54 654.22A 12.78 12.78 0 0 1 427.76 667L 395.74 667A 12.78 12.78 0 0 1 382.96 654.22L 382.96 624.7A 12.78 12.78 0 0 1 395.74 611.92L 427.76 611.92A 12.78 12.78 0 0 1 440.54 624.7L 440.54 654.22Z" fill="#d7d6d3"/><path d="M 507.31 654.35A 12.65 12.65 0 0 1 494.66 667L 462.52 667A 12.65 12.65 0 0 1 449.87 654.35L 449.87 624.57A 12.65 12.65 0 0 1 462.52 611.92L 494.66 611.92A 12.65 12.65 0 0 1 507.31 624.57L 507.31 654.35Z" fill="#d7d6d3"/><path d="M 574.11 654.4A 12.65 12.65 0 0 1 561.44 667.03L 529.28 666.97A 12.65 12.65 0 0 1 516.65 654.3L 516.71 624.52A 12.65 12.65 0 0 1 529.38 611.89L 561.54 611.95A 12.65 12.65 0 0 1 574.17 624.62L 574.11 654.4Z" fill="#d7d6d3"/><path d="M 641.03 654.26A 12.79 12.79 0 0 1 628.22 667.03L 596.18 666.97A 12.79 12.79 0 0 1 583.41 654.16L 583.47 624.66A 12.79 12.79 0 0 1 596.28 611.89L 628.32 611.95A 12.79 12.79 0 0 1 641.09 624.76L 641.03 654.26Z" fill="#d7d6d3"/><path d="M 735.54 654.33A 12.74 12.74 0 0 1 722.78 667.05L 662.34 666.95A 12.74 12.74 0 0 1 649.62 654.18L 649.68 624.61A 12.74 12.74 0 0 1 662.44 611.89L 722.88 611.99A 12.74 12.74 0 0 1 735.6 624.76L 735.54 654.33Z" fill="#d7d6d3"/><path d="M 359.08 651.2A 0.66 0.66 0 0 1 358.42 651.86L 304.26 651.86A 0.66 0.66 0 0 1 303.6 651.2L 303.6 627.66A 0.66 0.66 0 0 1 304.26 627L 358.42 627A 0.66 0.66 0 0 1 359.08 627.66L 359.08 651.2Z" fill="#73726d"/><path d="M 425.35 651.23A 0.59 0.59 0 0 1 424.76 651.82L 398.62 651.82A 0.59 0.59 0 0 1 398.03 651.23L 398.03 627.59A 0.59 0.59 0 0 1 398.62 627L 424.76 627A 0.59 0.59 0 0 1 425.35 627.59L 425.35 651.23Z" fill="#73726d"/><path d="M 492.04 651.32A 0.51 0.51 0 0 1 491.53 651.83L 465.51 651.83A 0.51 0.51 0 0 1 465 651.32L 465 627.5A 0.51 0.51 0 0 1 465.51 626.99L 491.53 626.99A 0.51 0.51 0 0 1 492.04 627.5L 492.04 651.32Z" fill="#73726d"/><path d="M 559 651.22A 0.6 0.6 0 0 1 558.4 651.82L 532.54 651.82A 0.6 0.6 0 0 1 531.94 651.22L 531.94 627.6A 0.6 0.6 0 0 1 532.54 627L 558.4 627A 0.6 0.6 0 0 1 559 627.6L 559 651.22Z" fill="#73726d"/><path d="M 625.96 651.17A 0.65 0.65 0 0 1 625.31 651.82L 599.31 651.82A 0.65 0.65 0 0 1 598.66 651.17L 598.66 627.65A 0.65 0.65 0 0 1 599.31 627L 625.31 627A 0.65 0.65 0 0 1 625.96 627.65L 625.96 651.17Z" fill="#73726d"/><path d="M 720.42 651.29A 0.55 0.55 0 0 1 719.87 651.84L 665.43 651.84A 0.55 0.55 0 0 1 664.88 651.29L 664.88 627.55A 0.55 0.55 0 0 1 665.43 627L 719.87 627A 0.55 0.55 0 0 1 720.42 627.55L 720.42 651.29Z" fill="#73726d"/><path d="M 346.04 726.2A 12.81 12.81 0 0 1 333.23 739.01L 301.21 739.01A 12.81 12.81 0 0 1 288.4 726.2L 288.4 696.76A 12.81 12.81 0 0 1 301.21 683.95L 333.23 683.95A 12.81 12.81 0 0 1 346.04 696.76L 346.04 726.2Z" fill="#d7d6d3"/><path d="M 649.21 723.76A 0.4 0.39 -0 0 0 649.61 723.37L 649.61 699.47A 0.35 0.34 90 0 0 649.27 699.12Q 563.02 699.13 438.47 699.13Q 430.49 699.13 429.64 698.86Q 425.2 697.46 424.25 692.26A 3.64 3.5 -47.74 0 1 424.22 691.23C 425.03 684.8 429.48 683.8 435.58 683.89Q 439.34 683.94 650.66 683.93Q 664.54 683.93 664.79 698.04Q 665.03 710.81 664.99 718.82C 664.94 728.33 664.84 735.02 656.49 738.18Q 654.08 739.09 647.42 739.09Q 467.11 739.06 377.14 739.1Q 369.11 739.1 366.1 737.61Q 359.4 734.29 359.12 725.23Q 359.12 725.16 359.09 701.28C 359.08 693.89 359.7 689.03 365.78 685.41Q 368.52 683.78 378.48 683.87Q 390.1 683.97 391.5 683.94C 394.73 683.89 398.15 686.05 399 689.23C 400.28 693.98 398.03 697.27 393.6 698.98A 1.99 1.94 33.52 0 1 392.87 699.12L 374.7 699.12A 0.31 0.31 -45 0 0 374.39 699.43L 374.39 723.31A 0.45 0.45 -45.03 0 0 374.84 723.76L 649.21 723.76Z" fill="#d7d6d3"/><path d="M 735.58 726.24A 12.83 12.83 0 0 1 722.73 739.05L 690.73 738.99A 12.83 12.83 0 0 1 677.92 726.14L 677.98 696.72A 12.83 12.83 0 0 1 690.83 683.91L 722.83 683.97A 12.83 12.83 0 0 1 735.64 696.82L 735.58 726.24Z" fill="#d7d6d3"/><path d="M 330.94 723.22A 0.62 0.62 0 0 1 330.32 723.84L 304.26 723.84A 0.62 0.62 0 0 1 303.64 723.22L 303.64 699.64A 0.62 0.62 0 0 1 304.26 699.02L 330.32 699.02A 0.62 0.62 0 0 1 330.94 699.64L 330.94 723.22Z" fill="#73726d"/><path d="M 720.36 723.29A 0.56 0.56 0 0 1 719.8 723.85L 693.62 723.85A 0.56 0.56 0 0 1 693.06 723.29L 693.06 699.59A 0.56 0.56 0 0 1 693.62 699.03L 719.8 699.03A 0.56 0.56 0 0 1 720.36 699.59L 720.36 723.29Z" fill="#73726d"/></svg>