<svg xmlns="http://www.w3.org/2000/svg" viewBox="0 0 1024 1024" width="1024" height="1024"><g stroke-width="2" fill="none" stroke-linecap="butt"><path d="M 256.05 510.94Q 256.05 514.76 257.63 518.69Q 278.4 570.39 312.11 614.64C 340.77 652.26 377.76 684.16 421.6 703.07C 449.93 715.3 480.54 721.41 511.99 721.41C 543.43 721.41 574.04 715.3 602.38 703.07C 646.21 684.16 683.2 652.26 711.86 614.64Q 745.57 570.39 766.34 518.68Q 767.92 514.75 767.92 510.93Q 767.92 507.11 766.34 503.18Q 745.57 451.48 711.86 407.23C 683.2 369.61 646.21 337.71 602.37 318.8C 574.04 306.57 543.42 300.45 511.98 300.45C 480.54 300.45 449.93 306.57 421.59 318.8C 377.76 337.71 340.77 369.61 312.11 407.23Q 278.4 451.48 257.63 503.18Q 256.05 507.12 256.05 510.94" stroke="rgba(135,134,130,1)" vector-effect="non-scaling-stroke"/><path d="M 305.31 510.95Q 305.31 511.44 305.86 512.69C 340.02 589.53 402.44 664.26 491.25 673.44Q 501.2 674.47 512.01 674.47Q 522.82 674.47 532.76 673.44C 621.57 664.26 683.99 589.52 718.14 512.69Q 718.7 511.43 718.7 510.95Q 718.7 510.46 718.14 509.21C 683.99 432.37 621.57 357.64 532.75 348.46Q 522.81 347.43 512 347.43Q 501.19 347.43 491.25 348.46C 402.43 357.65 340.02 432.38 305.86 509.22Q 305.31 510.47 305.31 510.95" stroke="rgba(135,134,130,1)" vector-effect="non-scaling-stroke"/><path d="M 446.05 577.1Q 448.54 579.58 451.35 582.12Q 461.5 591.28 476.71 597.52C 514.55 613.05 557.49 602.06 583.88 570.68Q 604.52 546.15 605.57 511.8C 605.74 506.31 600.68 502.97 595.74 505.12Q 567.26 517.52 540.96 502.8Q 535.04 499.49 529.2 493.67Q 523.36 487.85 520.03 481.95Q 505.23 455.7 517.53 427.17C 519.66 422.23 516.31 417.18 510.82 417.37Q 476.47 418.53 452.01 439.26C 420.72 465.75 409.88 508.73 425.53 546.52Q 431.82 561.71 441.02 571.83Q 443.56 574.62 446.05 577.1" stroke="rgba(65,63,57,1)" vector-effect="non-scaling-stroke"/></g><path d="M 827.74 0Q 848.67 0.22 868.87 5.7C 872.87 6.79 876.12 6.82 879.88 8.16Q 886.76 10.61 893.15 12.53A 25.8 25.53 68.29 0 1 898.69 14.95Q 901.89 16.82 909.51 20.08C 915.75 22.75 921.48 26.55 927.81 29.54Q 931.83 31.45 934.09 33.16Q 940.01 37.67 941.29 38.26A 3.63 3.6 81.4 0 1 942.5 39.16Q 944.46 41.32 948.92 44.39Q 950.99 45.81 955.03 49.62Q 966.87 60.77 977.62 72.38Q 981.06 76.11 985.18 83.07Q 985.67 83.89 989.81 88.85A 8.35 7.95 -81.17 0 1 990.74 90.19Q 994.97 97.79 997.16 100.96C 1000.36 105.62 1002.29 111.7 1004.68 115.7Q 1005.89 117.7 1007.45 122.39Q 1008.38 125.17 1010.48 128.78C 1012.34 131.96 1013.28 137.39 1015.05 141.97Q 1016.61 145.99 1016.69 150.5C 1016.72 151.96 1018.25 154.74 1018.72 156.79C 1020.8 165.92 1023.04 174.63 1023.53 184.36Q 1023.83 190.18 1024 195.99L 1024 832.19C 1023.68 842.87 1022.46 849.88 1020.78 859.43Q 1019.73 865.45 1017.93 871.33Q 1012.64 888.63 1007.19 903.09Q 1006.09 906.02 1004.63 908.89C 1001.93 914.21 1000.34 917.48 996.98 922.78Q 992.7 929.52 989.99 934.97A 7.66 7.33 -13.47 0 1 989.21 936.18Q 984.24 942.39 977.18 951.43C 966.78 964.75 955.31 974.66 939.82 985.98C 934.7 989.72 930.66 993.73 925.12 995.71A 6.63 6.52 17.82 0 0 923.55 996.5Q 919.82 999.04 917.55 1000.06Q 905.03 1005.72 895.86 1010.48A 1.93 1.31 10.9 0 1 895.58 1010.6L 874.12 1017.26A 7.4 6.53 30.13 0 1 872.82 1017.52Q 872.41 1017.53 870.56 1017.97Q 862.22 1019.98 854.25 1021.74Q 846.64 1023.43 827.87 1024L 192.51 1024C 186.24 1023.76 179.82 1023.63 173.67 1022.41Q 166.56 1021 166.11 1020.94C 162.14 1020.34 159.05 1019.02 155.05 1018.26C 146.58 1016.65 140.61 1014.26 129.08 1010.54Q 123.88 1008.86 116.8 1005.22C 107.53 1000.44 97.79 995.92 89.67 989.89C 82.22 984.36 75.74 980.66 69.39 974.68Q 57.33 963.34 47.27 952.35C 43.35 948.06 40.63 943.16 36.35 937.69Q 32.7 933.02 29.14 926.86Q 19.79 910.69 15.79 900.54C 12.7 892.69 9.25 883.39 7.36 874.06Q 6.29 868.77 4.13 862.78A 5.21 4.85 31.65 0 1 3.94 862.09L 0.47 843.47A 5.98 5.85 -51.51 0 1 0.37 842.5L 0 827.87L 0 196.5Q 0.03 182.67 1.03 177.54Q 4.28 160.89 4.35 160.48C 5.35 154.16 7.94 148.08 9.12 142.04A 6.7 6.62 65.79 0 1 9.85 140.08Q 11.9 136.48 12.6 132.27C 13.26 128.28 15.46 125.08 16.74 121.04A 12.04 12.03 69.27 0 1 17.91 118.44C 20.21 114.68 21.99 109.58 24.38 105.52C 29.25 97.26 32.63 90.2 38.22 83.57C 41.4 79.79 44.18 75.48 48.12 70.98Q 55.93 62.03 59.07 58.82Q 60.1 57.76 69.3 49.53Q 74.64 44.75 78.92 41.76C 82.9 38.97 87.22 35.15 92.24 32.01C 102.03 25.85 113.08 20.68 123.64 15.4Q 126.31 14.06 130.93 12.7Q 135.11 11.47 138.33 10.33Q 147.03 7.25 149.76 6.77Q 154.75 5.88 156.65 5.28C 164.21 2.89 173.02 1.8 179.74 0.71C 183.5 0.1 188 0.2 192.14 0L 827.74 0ZM 256.05 510.94Q 256.05 514.76 257.63 518.69Q 278.4 570.39 312.11 614.64C 340.77 652.26 377.76 684.16 421.6 703.07C 449.93 715.3 480.54 721.41 511.99 721.41C 543.43 721.41 574.04 715.3 602.38 703.07C 646.21 684.16 683.2 652.26 711.86 614.64Q 745.57 570.39 766.34 518.68Q 767.92 514.75 767.92 510.93Q 767.92 507.11 766.34 503.18Q 745.57 451.48 711.86 407.23C 683.2 369.61 646.21 337.71 602.37 318.8C 574.04 306.57 543.42 300.45 511.98 300.45C 480.54 300.45 449.93 306.57 421.59 318.8C 377.76 337.71 340.77 369.61 312.11 407.23Q 278.4 451.48 257.63 503.18Q 256.05 507.12 256.05 510.94Z" fill="#0e0c04"/><path d="M 511.98 300.45C 543.42 300.45 574.04 306.57 602.37 318.8C 646.21 337.71 683.2 369.61 711.86 407.23Q 745.57 451.48 766.34 503.18Q 767.92 507.11 767.92 510.93Q 767.92 514.75 766.34 518.68Q 745.57 570.39 711.86 614.64C 683.2 652.26 646.21 684.16 602.38 703.07C 574.04 715.3 543.43 721.41 511.99 721.41C 480.54 721.41 449.93 715.3 421.6 703.07C 377.76 684.16 340.77 652.26 312.11 614.64Q 278.4 570.39 257.63 518.69Q 256.05 514.76 256.05 510.94Q 256.05 507.12 257.63 503.18Q 278.4 451.48 312.11 407.23C 340.77 369.61 377.76 337.71 421.59 318.8C 449.93 306.57 480.54 300.45 511.98 300.45ZM 305.31 510.95Q 305.31 511.44 305.86 512.69C 340.02 589.53 402.44 664.26 491.25 673.44Q 501.2 674.47 512.01 674.47Q 522.82 674.47 532.76 673.44C 621.57 664.26 683.99 589.52 718.14 512.69Q 718.7 511.43 718.7 510.95Q 718.7 510.46 718.14 509.21C 683.99 432.37 621.57 357.64 532.75 348.46Q 522.81 347.43 512 347.43Q 501.19 347.43 491.25 348.46C 402.43 357.65 340.02 432.38 305.86 509.22Q 305.31 510.47 305.31 510.95Z" fill="#ffffff"/><path d="M 512 347.43Q 522.81 347.43 532.75 348.46C 621.57 357.64 683.99 432.37 718.14 509.21Q 718.7 510.46 718.7 510.95Q 718.7 511.43 718.14 512.69C 683.99 589.52 621.57 664.26 532.76 673.44Q 522.82 674.47 512.01 674.47Q 501.2 674.47 491.25 673.44C 402.44 664.26 340.02 589.53 305.86 512.69Q 305.31 511.44 305.31 510.95Q 305.31 510.47 305.86 509.22C 340.02 432.38 402.43 357.65 491.25 348.46Q 501.19 347.43 512 347.43Z" fill="#0e0c04"/><path d="M 529.2 493.67Q 535.04 499.49 540.96 502.8Q 567.26 517.52 595.74 505.12C 600.68 502.97 605.74 506.31 605.57 511.8Q 604.52 546.15 583.88 570.68C 557.49 602.06 514.55 613.05 476.71 597.52Q 461.5 591.28 451.35 582.12Q 448.54 579.58 446.05 577.1Q 443.56 574.62 441.02 571.83Q 431.82 561.71 425.53 546.52C 409.88 508.73 420.72 465.75 452.01 439.26Q 476.47 418.53 510.82 417.37C 516.31 417.18 519.66 422.23 517.53 427.17Q 505.23 455.7 520.03 481.95Q 523.36 487.85 529.2 493.67Z" fill="#73726d"/></svg>