<svg xmlns="http://www.w3.org/2000/svg" viewBox="0 0 1024 1024" width="1024" height="1024"><g stroke-width="2" fill="none" stroke-linecap="butt"><path d="M 351.12 634.13Q 368.01 657.32 389.38 674.37Q 437.71 712.96 499.69 719.57C 524.15 722.19 550.22 720.05 573.46 713.94C 633.52 698.16 683.84 657.08 710.5 600.75Q 711.42 598.81 711.81 597.09A 0.4 0.39 -8.18 0 0 711.23 596.66C 708.36 598.21 704.4 601.63 701.63 603.5Q 667.71 626.35 628.25 632.75C 560.74 643.7 492.72 615.64 452.44 560.34C 412.16 505.03 406.33 431.68 437.46 370.79Q 455.66 335.19 487.82 309.92C 490.45 307.86 494.92 305.14 497.27 302.88A 0.4 0.39 -63.95 0 0 497.04 302.2Q 495.28 302.04 493.16 302.32C 431.36 310.41 376.82 345.7 343.38 398.02C 330.43 418.27 320.4 442.42 315.38 466.51Q 302.66 527.52 324.55 585.37Q 334.23 610.93 351.12 634.13" stroke="rgba(135,134,130,1)" vector-effect="non-scaling-stroke"/></g><path d="M 827.74 0Q 848.67 0.22 868.87 5.7C 872.87 6.79 876.12 6.82 879.88 8.16Q 886.76 10.61 893.15 12.53A 25.8 25.53 68.29 0 1 898.69 14.95Q 901.89 16.82 909.51 20.08C 915.75 22.75 921.48 26.55 927.81 29.54Q 931.83 31.45 934.09 33.16Q 940.01 37.67 941.29 38.26A 3.63 3.6 81.4 0 1 942.5 39.16Q 944.46 41.32 948.92 44.39Q 950.99 45.81 955.03 49.62Q 966.87 60.77 977.62 72.38Q 981.06 76.11 985.18 83.07Q 985.67 83.89 989.81 88.85A 8.35 7.95 -81.17 0 1 990.74 90.19Q 994.97 97.79 997.16 100.96C 1000.36 105.62 1002.29 111.7 1004.68 115.7Q 1005.89 117.7 1007.45 122.39Q 1008.38 125.17 1010.48 128.78C 1012.34 131.96 1013.28 137.39 1015.05 141.97Q 1016.61 145.99 1016.69 150.5C 1016.72 151.96 1018.25 154.74 1018.72 156.79C 1020.8 165.92 1023.04 174.63 1023.53 184.36Q 1023.83 190.18 1024 195.99L 1024 832.19C 1023.68 842.87 1022.46 849.88 1020.78 859.43Q 1019.73 865.45 1017.93 871.33Q 1012.64 888.63 1007.19 903.09Q 1006.09 906.02 1004.63 908.89C 1001.93 914.21 1000.34 917.48 996.98 922.78Q 992.7 929.52 989.99 934.97A 7.66 7.33 -13.47 0 1 989.21 936.18Q 984.24 942.39 977.18 951.43C 966.78 964.75 955.31 974.66 939.82 985.98C 934.7 989.72 930.66 993.73 925.12 995.71A 6.63 6.52 17.82 0 0 923.55 996.5Q 919.82 999.04 917.55 1000.06Q 905.03 1005.72 895.86 1010.48A 1.93 1.31 10.9 0 1 895.58 1010.6L 874.12 1017.26A 7.4 6.53 30.13 0 1 872.82 1017.52Q 872.41 1017.53 870.56 1017.97Q 862.22 1019.98 854.25 1021.74Q 846.64 1023.43 827.87 1024L 192.51 1024C 186.24 1023.76 179.82 1023.63 173.67 1022.41Q 166.56 1021 166.11 1020.94C 162.14 1020.34 159.05 1019.02 155.05 1018.26C 146.58 1016.65 140.61 1014.26 129.08 1010.54Q 123.88 1008.86 116.8 1005.22C 107.53 1000.44 97.79 995.92 89.67 989.89C 82.22 984.36 75.74 980.66 69.39 974.68Q 57.33 963.34 47.27 952.35C 43.35 948.06 40.63 943.16 36.35 937.69Q 32.7 933.02 29.14 926.86Q 19.79 910.69 15.79 900.54C 12.7 892.69 9.25 883.39 7.36 874.06Q 6.29 868.77 4.13 862.78A 5.21 4.85 31.65 0 1 3.94 862.09L 0.47 843.47A 5.98 5.85 -51.51 0 1 0.37 842.5L 0 827.87L 0 196.5Q 0.03 182.67 1.03 177.54Q 4.28 160.89 4.35 160.48C 5.35 154.16 7.94 148.08 9.12 142.04A 6.7 6.62 65.79 0 1 9.85 140.08Q 11.9 136.48 12.6 132.27C 13.26 128.28 15.46 125.08 16.74 121.04A 12.04 12.03 69.27 0 1 17.91 118.44C 20.21 114.68 21.99 109.58 24.38 105.52C 29.25 97.26 32.63 90.2 38.22 83.57C 41.4 79.79 44.18 75.48 48.12 70.98Q 55.93 62.03 59.07 58.82Q 60.1 57.76 69.3 49.53Q 74.64 44.75 78.92 41.76C 82.9 38.97 87.22 35.15 92.24 32.01C 102.03 25.85 113.08 20.68 123.64 15.4Q 126.31 14.06 130.93 12.7Q 135.11 11.47 138.33 10.33Q 147.03 7.25 149.76 6.77Q 154.75 5.88 156.65 5.28C 164.21 2.89 173.02 1.8 179.74 0.71C 183.5 0.1 188 0.2 192.14 0L 827.74 0Z" fill="#0e0c04"/><path d="M 452.44 560.34C 492.72 615.64 560.74 643.7 628.25 632.75Q 667.71 626.35 701.63 603.5C 704.4 601.63 708.36 598.21 711.23 596.66A 0.4 0.39 -8.18 0 1 711.81 597.09Q 711.42 598.81 710.5 600.75C 683.84 657.08 633.52 698.16 573.46 713.94C 550.22 720.05 524.15 722.19 499.69 719.57Q 437.71 712.96 389.38 674.37Q 368.01 657.32 351.12 634.13Q 334.23 610.93 324.55 585.37Q 302.66 527.52 315.38 466.51C 320.4 442.42 330.43 418.27 343.38 398.02C 376.82 345.7 431.36 310.41 493.16 302.32Q 495.28 302.04 497.04 302.2A 0.4 0.39 -63.95 0 1 497.27 302.88C 494.92 305.14 490.45 307.86 487.82 309.92Q 455.66 335.19 437.46 370.79C 406.33 431.68 412.16 505.03 452.44 560.34Z" fill="#ffffff"/></svg>